<svg width="22" height="25" viewBox="0 0 22 25" fill="none" xmlns="http://www.w3.org/2000/svg">
<path d="M12.3749 3.0398H10.8115H9.24817C8.86956 3.0398 8.52622 2.88643 8.27754 2.63884C8.02886 2.39125 7.87482 2.04941 7.87482 1.67245V1.51991V1.36736C7.87482 0.990409 8.02886 0.648568 8.27754 0.400977C8.52622 0.153386 8.86956 0 9.24817 0H10.8115H12.3749C12.7535 0 13.0969 0.153364 13.3456 0.400955C13.5942 0.648546 13.7483 0.990386 13.7483 1.36734V1.51989V1.67243C13.7483 2.04939 13.5942 2.39123 13.3456 2.63882C13.0968 2.88643 12.7535 3.0398 12.3749 3.0398ZM9.24817 0.699523C9.06325 0.699523 8.89556 0.774432 8.7741 0.895364C8.65263 1.0163 8.57739 1.18325 8.57739 1.36736V1.51991V1.67245C8.57739 1.85657 8.65263 2.02352 8.7741 2.14445C8.89556 2.26539 9.06325 2.3403 9.24817 2.3403H10.8115H12.3749C12.5598 2.3403 12.7275 2.26539 12.849 2.14445C12.9705 2.02352 13.0457 1.85657 13.0457 1.67245V1.51991V1.36736C13.0457 1.18325 12.9705 1.0163 12.849 0.895364C12.7275 0.774432 12.5598 0.699523 12.3749 0.699523H10.8115H9.24817Z" fill="#2E4C59"/>
<path d="M17.5761 24.6502H10.8115H4.04685C3.88049 24.6502 3.72987 24.5831 3.62085 24.4745C3.51183 24.366 3.4444 24.216 3.4444 24.0504V24.0004V23.9504C3.4444 23.7847 3.51183 23.6348 3.62085 23.5262C3.72987 23.4177 3.88049 23.3505 4.04685 23.3505H10.8115H17.5761C17.7425 23.3505 17.8931 23.4177 18.0021 23.5262C18.1111 23.6348 18.1786 23.7847 18.1786 23.9504V24.0004V24.0504C18.1786 24.216 18.1111 24.366 18.0021 24.4745C17.8931 24.5831 17.7425 24.6502 17.5761 24.6502Z" fill="#9AA1A7"/>
<path d="M17.611 25H10.8115H4.01197C3.75865 25 3.52892 24.8974 3.36253 24.7317C3.19614 24.5661 3.09308 24.3374 3.09308 24.0851V24.0004V23.9157C3.09308 23.6635 3.19614 23.4347 3.36253 23.269C3.52892 23.1033 3.75863 23.0007 4.01197 23.0007H10.8115H17.611C17.8643 23.0007 18.0941 23.1034 18.2605 23.269C18.4269 23.4347 18.5299 23.6635 18.5299 23.9157V24.0004V24.0851C18.5299 24.3373 18.4269 24.5661 18.2605 24.7317C18.0941 24.8974 17.8644 25 17.611 25ZM4.01197 23.7003C3.95234 23.7003 3.89826 23.7244 3.85912 23.7634C3.81997 23.8024 3.7957 23.8563 3.7957 23.9157V24.0004V24.0851C3.7957 24.1445 3.81997 24.1983 3.85912 24.2373C3.89826 24.2763 3.95234 24.3005 4.01197 24.3005H10.8115H17.611C17.6707 24.3005 17.7247 24.2763 17.7639 24.2373C17.8031 24.1983 17.8273 24.1445 17.8273 24.0851V24.0004V23.9157C17.8273 23.8563 17.803 23.8024 17.7639 23.7634C17.7247 23.7244 17.6707 23.7003 17.611 23.7003H10.8115H4.01197Z" fill="#2E4C59"/>
<g opacity="0.35">
<path opacity="0.35" d="M17.5761 24.6502H10.8115H4.04685C3.88049 24.6502 3.72987 24.5831 3.62085 24.4745C3.51183 24.366 3.4444 24.216 3.4444 24.0504V24.0004V23.9504C3.4444 23.7847 3.51183 23.6348 3.62085 23.5262C3.72987 23.4177 3.88049 23.3505 4.04685 23.3505H10.8115H17.5761C17.7425 23.3505 17.8931 23.4177 18.0021 23.5262C18.1111 23.6348 18.1786 23.7847 18.1786 23.9504V24.0004V24.0504C18.1786 24.216 18.1111 24.366 18.0021 24.4745C17.8931 24.5831 17.7425 24.6502 17.5761 24.6502Z" fill="#2E4C59"/>
<path opacity="0.35" d="M17.611 25H10.8115H4.01197C3.75865 25 3.52892 24.8974 3.36253 24.7317C3.19614 24.5661 3.09308 24.3374 3.09308 24.0851V24.0004V23.9157C3.09308 23.6635 3.19614 23.4347 3.36253 23.269C3.52892 23.1033 3.75863 23.0007 4.01197 23.0007H10.8115H17.611C17.8643 23.0007 18.0941 23.1034 18.2605 23.269C18.4269 23.4347 18.5299 23.6635 18.5299 23.9157V24.0004V24.0851C18.5299 24.3373 18.4269 24.5661 18.2605 24.7317C18.0941 24.8974 17.8644 25 17.611 25ZM4.01197 23.7003C3.95234 23.7003 3.89826 23.7244 3.85912 23.7634C3.81997 23.8024 3.7957 23.8563 3.7957 23.9157V24.0004V24.0851C3.7957 24.1445 3.81997 24.1983 3.85912 24.2373C3.89826 24.2763 3.95234 24.3005 4.01197 24.3005H10.8115H17.611C17.6707 24.3005 17.7247 24.2763 17.7639 24.2373C17.8031 24.1983 17.8273 24.1445 17.8273 24.0851V24.0004V23.9157C17.8273 23.8563 17.803 23.8024 17.7639 23.7634C17.7247 23.7244 17.6707 23.7003 17.611 23.7003H10.8115H4.01197Z" fill="#2E4C59"/>
</g>
<path d="M20.0669 4.64591H10.8115H1.55615C1.22342 4.64591 0.922213 4.51164 0.704167 4.29455C0.486121 4.07746 0.351257 3.77755 0.351257 3.4463V3.34625V3.24621C0.351257 2.91493 0.486121 2.61505 0.704167 2.39796C0.922213 2.18087 1.22344 2.04659 1.55615 2.04659H10.8115H20.0669C20.3996 2.04659 20.7008 2.18087 20.9188 2.39796C21.1369 2.61505 21.2718 2.91496 21.2718 3.24621V3.34625V3.4463C21.2718 3.77757 21.1369 4.07746 20.9188 4.29455C20.7008 4.51164 20.3996 4.64591 20.0669 4.64591Z" fill="#B3B8BD"/>
<path d="M20.1366 4.99573H10.8115H1.48644C1.0766 4.99573 0.704997 4.82973 0.435841 4.56173C0.166685 4.29373 0 3.92371 0 3.51566V3.34625V3.17685C0 2.7688 0.166708 2.3988 0.435841 2.13078C0.704997 1.86278 1.0766 1.69678 1.48644 1.69678H10.8115H20.1366C20.5464 1.69678 20.918 1.86278 21.1872 2.13078C21.4563 2.39878 21.623 2.7688 21.623 3.17685V3.34625V3.51566C21.623 3.92371 21.4563 4.29371 21.1872 4.56173C20.918 4.82975 20.5464 4.99573 20.1366 4.99573ZM1.48644 2.3963C1.27031 2.3963 1.07434 2.48385 0.932425 2.62519C0.790508 2.76653 0.7026 2.96166 0.7026 3.17685V3.34625V3.51566C0.7026 3.73085 0.790485 3.92598 0.932425 4.06732C1.07437 4.20866 1.27031 4.29621 1.48644 4.29621H10.8115H20.1366C20.3527 4.29621 20.5487 4.20866 20.6906 4.06732C20.8325 3.92598 20.9204 3.73085 20.9204 3.51566V3.34625V3.17685C20.9204 2.96166 20.8325 2.76653 20.6906 2.62519C20.5487 2.48385 20.3527 2.3963 20.1366 2.3963H10.8115H1.48644Z" fill="#2E4C59"/>
<path d="M17.0031 23.3346H10.8115H4.61996C4.30757 23.3346 4.00636 23.2074 3.7717 23.0003C3.53703 22.7931 3.36891 22.506 3.32266 22.1861L2.59105 13.416L1.85944 4.64594H10.8115H19.7636L19.032 13.416L18.3004 22.1861C18.2541 22.506 18.086 22.7931 17.8513 23.0003C17.6167 23.2074 17.3155 23.3346 17.0031 23.3346Z" fill="#9AA1A7"/>
<path d="M17.0031 23.6843H10.8116H4.62004C4.21755 23.6843 3.83565 23.5253 3.5397 23.2647C3.24374 23.0042 3.03371 22.6421 2.97497 22.236C2.97449 22.2326 2.97404 22.2291 2.97365 22.2256C2.97326 22.2221 2.97292 22.2186 2.97265 22.2151L2.24101 13.445L1.50937 4.67492C1.50533 4.62621 1.51161 4.57773 1.5272 4.53244C1.54279 4.48714 1.5677 4.44503 1.60091 4.40903C1.63419 4.3731 1.67425 4.34489 1.71829 4.32564C1.76232 4.30642 1.81033 4.29617 1.85945 4.29617H10.8115H19.7636C19.8127 4.29617 19.8608 4.30642 19.9048 4.32564C19.9488 4.34487 19.9889 4.3731 20.0222 4.40903C20.0554 4.44503 20.0803 4.48714 20.0959 4.53244C20.1115 4.57773 20.1177 4.62619 20.1137 4.67492L19.3821 13.445L18.6504 22.2151C18.6502 22.2186 18.6498 22.2221 18.6494 22.2256C18.649 22.2291 18.6486 22.2326 18.6481 22.236C18.5894 22.6421 18.3794 23.0042 18.0834 23.2647C17.7875 23.5253 17.4056 23.6843 17.0031 23.6843ZM3.6718 22.1459C3.70782 22.3776 3.83166 22.5873 4.00311 22.7391C4.17457 22.8909 4.39362 22.9848 4.62004 22.9848H10.8116H17.0031C17.2296 22.9848 17.4486 22.8909 17.62 22.7391C17.7914 22.5873 17.9152 22.3776 17.9513 22.1459L18.6666 13.5708L19.382 4.99576H10.8115H2.24105L2.95642 13.5708L3.6718 22.1459Z" fill="#2E4C59"/>
<g opacity="0.35">
<path opacity="0.35" d="M19.4246 8.71007L19.5941 6.678L19.7636 4.64591H10.8115H1.85944L2.02897 6.678L2.19849 8.71007H10.8116H19.4246Z" fill="#2E4C59"/>
<path opacity="0.35" d="M19.4245 9.05982H10.8115H2.19853C2.10713 9.05982 2.0234 9.02495 1.9606 8.96741C1.89782 8.90986 1.85601 8.82968 1.84845 8.73902L1.67891 6.70698L1.50937 4.67493C1.50533 4.62623 1.51161 4.57775 1.5272 4.53245C1.54279 4.48716 1.5677 4.44504 1.60091 4.40904C1.63419 4.37311 1.67425 4.34491 1.71829 4.32566C1.76232 4.30643 1.81033 4.29618 1.85945 4.29618H10.8115H19.7636C19.8127 4.29618 19.8608 4.30643 19.9048 4.32566C19.9488 4.34489 19.9889 4.37311 20.0222 4.40904C20.0554 4.44504 20.0803 4.48716 20.0959 4.53245C20.1115 4.57775 20.1177 4.6262 20.1137 4.67493L19.9442 6.70698L19.7746 8.73902C19.7671 8.82968 19.7253 8.90986 19.6625 8.96741C19.5997 9.02495 19.5159 9.05982 19.4245 9.05982ZM2.52183 8.36029H10.8115H19.1012L19.2416 6.67802L19.382 4.99575H10.8115H2.24105L2.38144 6.67802L2.52183 8.36029Z" fill="#2E4C59"/>
</g>
<path d="M4.30151 4.9585L4.96757 14.1466L5.63362 23.3346" fill="#9AA1A7"/>
<path d="M5.63331 23.6843C5.54204 23.6843 5.4579 23.6492 5.3949 23.5911C5.3319 23.5329 5.29003 23.4518 5.28339 23.3597L4.61729 14.1716L3.95119 4.98357C3.94418 4.88726 3.9771 4.79721 4.03592 4.72953C4.09475 4.66185 4.17953 4.61653 4.27627 4.60962C4.37233 4.60203 4.46272 4.63476 4.53086 4.69348C4.599 4.75219 4.64486 4.83692 4.65187 4.9333L5.31797 14.1213L5.98407 23.3094C5.99108 23.4057 5.95816 23.4958 5.89934 23.5634C5.84051 23.6311 5.75573 23.6764 5.65899 23.6833C5.65474 23.6837 5.65045 23.6839 5.64616 23.6841C5.64184 23.6842 5.63755 23.6843 5.63331 23.6843Z" fill="#2E4C59"/>
<path d="M7.35724 4.74339L7.74033 13.91L8.12339 23.0766" fill="#9AA1A7"/>
<path d="M8.12316 23.4263C8.0295 23.4263 7.94376 23.3896 7.88049 23.3293C7.81719 23.269 7.77632 23.1851 7.77242 23.0911L7.38936 13.9245L7.00629 4.75789C7.00225 4.66144 7.03788 4.57246 7.09879 4.5066C7.15969 4.44073 7.24582 4.39796 7.34279 4.39394C7.43987 4.3908 7.52924 4.42628 7.59535 4.48669C7.66146 4.5471 7.7043 4.63241 7.70837 4.72894L8.09143 13.8955L8.4745 23.0621C8.47854 23.1586 8.4429 23.2476 8.382 23.3134C8.3211 23.3793 8.23497 23.4221 8.138 23.4261C8.13553 23.4261 8.13307 23.4262 8.13058 23.4263C8.12809 23.4263 8.12563 23.4263 8.12316 23.4263Z" fill="#2E4C59"/>
<path d="M17.3215 4.95851L16.6554 14.1466L15.9894 23.3346" fill="#9AA1A7"/>
<path d="M15.9899 23.6843C15.9856 23.6843 15.9813 23.6842 15.977 23.6841C15.9727 23.6839 15.9684 23.6837 15.9642 23.6834C15.8675 23.6764 15.7827 23.6311 15.7239 23.5634C15.665 23.4958 15.6321 23.4057 15.6391 23.3094L16.3051 14.1214L16.9712 4.9333C16.9782 4.83692 17.0243 4.75221 17.0926 4.69349C17.1609 4.63478 17.2513 4.60205 17.3468 4.60962C17.4435 4.61653 17.5283 4.66185 17.5871 4.72953C17.646 4.79721 17.6789 4.88726 17.6719 4.98358L17.0058 14.1716L16.3398 23.3597C16.3331 23.4518 16.2913 23.5329 16.2283 23.5911C16.1653 23.6492 16.0811 23.6843 15.9899 23.6843Z" fill="#2E4C59"/>
<path d="M14.2658 4.74339L13.8827 13.91L13.4996 23.0766" fill="#9AA1A7"/>
<path d="M13.4998 23.4264C13.4974 23.4264 13.4949 23.4263 13.4924 23.4263C13.49 23.4262 13.4875 23.4262 13.485 23.4261C13.3881 23.4221 13.3019 23.3793 13.241 23.3134C13.1801 23.2476 13.1445 23.1586 13.1485 23.0621L13.5316 13.8955L13.9146 4.72895C13.9187 4.63236 13.9623 4.54692 14.0288 4.48649C14.0952 4.42606 14.1846 4.39061 14.2802 4.39395C14.3772 4.39797 14.4633 4.44074 14.5242 4.50661C14.5851 4.57247 14.6207 4.66145 14.6167 4.7579L14.2336 13.9245L13.8506 23.0911C13.8467 23.1852 13.8058 23.269 13.7425 23.3293C13.6792 23.3896 13.5935 23.4264 13.4998 23.4264Z" fill="#2E4C59"/>
<path d="M10.7088 23.4264C10.6118 23.4264 10.5239 23.3872 10.4604 23.3239C10.3968 23.2606 10.3575 23.1732 10.3575 23.0766V13.91V4.74342C10.3575 4.64683 10.3968 4.55937 10.4604 4.4961C10.5239 4.43283 10.6118 4.39367 10.7088 4.39367C10.8058 4.39367 10.8936 4.43281 10.9572 4.4961C11.0207 4.5594 11.0601 4.64683 11.0601 4.74342V13.91V23.0766C11.0601 23.1732 11.0208 23.2606 10.9572 23.3239C10.8936 23.3872 10.8058 23.4264 10.7088 23.4264Z" fill="#2E4C59"/>
</svg>
