<svg width="24" height="23" viewBox="0 0 24 23" fill="none" xmlns="http://www.w3.org/2000/svg">
<g clip-path="url(#clip0_3_348)">
<path d="M11.7025 22.4634C18.0571 22.4634 23.2086 17.5549 23.2086 11.5C23.2086 5.44508 18.0571 0.536591 11.7025 0.536591C5.34782 0.536591 0.19635 5.44508 0.19635 11.5C0.19635 17.5549 5.34782 22.4634 11.7025 22.4634Z" fill="#267CB5"/>
<path d="M18.7141 10.3009H17.078C16.9881 10.3009 16.9342 10.2495 16.8982 10.181C16.7724 9.73557 16.5926 9.32444 16.3589 8.93044C16.3229 8.86192 16.3229 8.77627 16.3769 8.72488L17.5275 7.62854C17.5994 7.56001 17.5994 7.45723 17.5275 7.38871L16.0173 5.93263C15.9454 5.86411 15.8375 5.86411 15.7656 5.93263L14.615 7.02897C14.5611 7.08037 14.4712 7.0975 14.3993 7.06323C13.9858 6.84054 13.5543 6.66924 13.0868 6.54932C13.0149 6.53219 12.961 6.46367 12.961 6.37802V4.81916C12.961 4.71638 12.8891 4.64786 12.7812 4.64786H10.6238C10.5159 4.64786 10.444 4.71638 10.444 4.81916V6.37802C10.444 6.46367 10.3901 6.51506 10.3182 6.54932C9.85074 6.66924 9.41926 6.84054 9.00575 7.06323C8.93384 7.0975 8.84395 7.0975 8.79001 7.0461C8.53832 6.80628 7.90908 6.20672 7.6394 5.94976C7.56749 5.88124 7.45962 5.88124 7.3877 5.94976L5.85954 7.38871C5.78763 7.45723 5.78763 7.56001 5.85954 7.62854L7.01016 8.72488C7.06409 8.77627 7.08207 8.86192 7.04611 8.93044C6.8124 9.32444 6.63261 9.73557 6.50676 10.181C6.48879 10.2495 6.41687 10.3009 6.32698 10.3009H4.69095C4.58308 10.3009 4.51117 10.3694 4.51117 10.4722V12.5278C4.51117 12.6306 4.58308 12.6991 4.69095 12.6991H6.32698C6.41687 12.6991 6.47081 12.7505 6.50676 12.819C6.63261 13.2644 6.8124 13.6755 7.04611 14.0695C7.08207 14.1381 7.08207 14.2237 7.02814 14.2751C6.77644 14.5149 6.1472 15.1145 5.87752 15.3714C5.80561 15.44 5.80561 15.5428 5.87752 15.6113L7.40568 17.0674C7.47759 17.1359 7.58546 17.1359 7.65738 17.0674L8.80799 15.971C8.86193 15.9196 8.95182 15.9025 9.02373 15.9367C9.43723 16.1594 9.86871 16.3307 10.3362 16.4507C10.4081 16.4678 10.444 16.5534 10.444 16.6391V18.1808C10.444 18.2836 10.5339 18.3521 10.6418 18.3521H12.7992C12.9071 18.3521 12.961 18.2836 12.961 18.1808V16.6391C12.961 16.5534 13.0329 16.4849 13.1048 16.4507C13.5723 16.3307 14.0037 16.1594 14.4172 15.9367C14.4891 15.9025 14.579 15.9025 14.633 15.9539C14.8847 16.1937 15.5139 16.7933 15.7836 17.0502C15.8555 17.1187 15.9634 17.1187 16.0353 17.0502L17.5634 15.5941C17.6354 15.5256 17.6354 15.4228 17.5634 15.3543L16.4128 14.258C16.3589 14.2066 16.3409 14.1209 16.3769 14.0524C16.6106 13.6584 16.7904 13.2644 16.9162 12.819C16.9342 12.7505 17.0061 12.6991 17.096 12.6991H18.732C18.8219 12.7162 18.8938 12.6306 18.8938 12.5278V10.4722C18.8938 10.3694 18.8219 10.3009 18.7141 10.3009ZM11.7025 14.5835C9.92265 14.5835 8.4664 13.1959 8.4664 11.5C8.4664 9.80409 9.92265 8.41653 11.7025 8.41653C13.4824 8.41653 14.9386 9.80409 14.9386 11.5C14.9386 13.1959 13.4824 14.5835 11.7025 14.5835Z" fill="white"/>
</g>
<defs>
<clipPath id="clip0_3_348">
<rect width="23.0123" height="21.9268" fill="white" transform="translate(0.19635 0.536591)"/>
</clipPath>
</defs>
</svg>
