<svg xmlns="http://www.w3.org/2000/svg" xmlns:xlink="http://www.w3.org/1999/xlink" viewBox="0 0 230 230">
  <defs>
    <style>
      .cls-1 {
        fill: #fff;
      }

      .cls-2 {
        fill: #f4f4f4;
      }

      .cls-3 {
        fill: #fbc316;
      }

      .cls-4 {
        fill: #000078;
      }

      .cls-5 {
        fill: #37beb7;
      }

      .cls-6 {
        filter: url(#Rectangle_22);
      }
    </style>
    <filter id="Rectangle_22" x="0" y="0" width="230" height="230" filterUnits="userSpaceOnUse">
      <feOffset dy="4" input="SourceAlpha"/>
      <feGaussianBlur stdDeviation="5" result="blur"/>
      <feFlood flood-opacity="0.102"/>
      <feComposite operator="in" in2="blur"/>
      <feComposite in="SourceGraphic"/>
    </filter>
  </defs>
  <g id="Group_23" data-name="Group 23" transform="translate(-149 -491)">
    <g class="cls-6" transform="matrix(1, 0, 0, 1, 149, 491)">
      <rect id="Rectangle_22-2" data-name="Rectangle 22" class="cls-1" width="200" height="200" rx="25" transform="translate(15 11)"/>
    </g>
    <g id="Group_3" data-name="Group 3" transform="translate(227 552)">
      <g id="Group_2" data-name="Group 2" transform="translate(0.398 1.942)">
        <path id="Path_13" data-name="Path 13" class="cls-2" d="M3969.293,1004.962c-.9-3.586-4.333-6.624-7.818-6.773a8.878,8.878,0,0,0-8.566,5.877,7.453,7.453,0,0,0-.149,4.88,9.358,9.358,0,0,0,5.378,5.777c-9.362,20.667-18.675,41.235-28.038,61.9,1.295.6,2.54,1.145,3.536,1.594.6-.647,1-1.344,1.544-1.594,8.267-3.835,16.583-7.669,24.851-11.454a1.807,1.807,0,0,1,1.743,0c7.818,3.635,15.687,7.221,23.556,10.856,1.1.5,2.39.8,2.589,2.391,1.345-.6,2.54-1.145,3.835-1.743-9.363-20.717-18.675-41.285-28.038-61.9C3968.745,1012.382,3970.09,1008,3969.293,1004.962Zm-12.649,1.693a4.014,4.014,0,0,1,4.333-4.283,4.21,4.21,0,0,1,3.536,1.594,4.693,4.693,0,0,0-2.739-.8,4.014,4.014,0,0,0-4.333,4.283,5.2,5.2,0,0,0,.8,2.888,4.372,4.372,0,0,1-1.594-3.685Zm-4.233,30.976c1.693,1.2,3.287,2.341,4.98,3.586-3.237,2.341-6.375,4.582-9.512,6.823-.05-.05-.1-.1-.1-.149C3949.273,1044.5,3950.817,1041.117,3952.411,1037.631Zm-15.189,33.516c2.191-4.88,4.283-9.512,6.474-14.243,4.084,1.892,8.117,3.735,12.3,5.627-6.275,2.888-12.4,5.677-18.775,8.615Zm47.51,0c-6.424-2.938-12.5-5.727-18.725-8.615,4.134-1.892,8.167-3.735,12.3-5.628,2.092,4.681,4.183,9.313,6.424,14.243Zm-9.91-17.281c-1.2.548-2.39,1.145-3.635,1.693-3.138,1.444-6.325,2.888-9.462,4.333a1.819,1.819,0,0,1-1.245.1c-4.333-1.942-8.665-3.934-13-5.926-.1-.05-.2-.149-.349-.249,2.888-2.092,5.727-4.134,8.565-6.175,1.594-1.146,3.138-2.291,4.781-3.386a1.173,1.173,0,0,1,1-.05c4.432,3.137,8.814,6.325,13.247,9.462,0,0,0,.05.1.2Zm-.6-5.976c-.05.05-.1.1-.149.1-3.137-2.241-6.275-4.482-9.512-6.823,1.693-1.245,3.287-2.39,4.98-3.586,1.594,3.536,3.137,6.922,4.681,10.309Zm-6.424-14.143c-2.291,1.643-4.532,3.287-6.823,4.88-2.241-1.643-4.482-3.237-6.823-4.88,2.241-4.93,4.482-9.861,6.823-15.04,2.34,5.08,4.531,10.01,6.822,15.04Z" transform="translate(-3923.748 -980.36)"/>
        <path id="Path_14" data-name="Path 14" class="cls-2" d="M3928.079,1014.84c.946-.9,1.893-1.843,2.938-2.789-6.325-6.524-9.811-14.293-9.761-23.406,0-9.114,3.486-16.833,9.761-23.357l-2.889-2.888C3913.288,976.842,3914.235,1001.792,3928.079,1014.84Z" transform="translate(-3917.344 -962.4)"/>
        <path id="Path_15" data-name="Path 15" class="cls-2" d="M4039.5,1012.1c1,1.046,1.892,1.992,2.839,2.938,15.388-15.189,13.3-40.239.1-52.44-.946.9-1.942,1.843-2.938,2.789,6.275,6.524,9.761,14.293,9.761,23.406A32.864,32.864,0,0,1,4039.5,1012.1Z" transform="translate(-3978.666 -962.5)"/>
        <path id="Path_16" data-name="Path 16" class="cls-2" d="M4025.05,1011.909c1,1.046,1.942,1.992,2.888,2.988,11.006-10.956,9.512-29.333-.149-38.3-.9.946-1.793,1.942-2.789,2.988a22.843,22.843,0,0,1,.05,32.321Z" transform="translate(-3971.387 -969.528)"/>
        <path id="Path_17" data-name="Path 17" class="cls-2" d="M3945.573,1014.8c1-.946,1.942-1.892,2.889-2.789a22.9,22.9,0,0,1,.05-32.42c-.946-.946-1.893-1.942-2.839-2.888C3934.916,987.058,3935.762,1005.833,3945.573,1014.8Z" transform="translate(-3927.667 -969.578)"/>
        <path id="Path_18" data-name="Path 18" class="cls-2" d="M3962.121,1015.351c.747-.747,1.444-1.544,2.191-2.341.2-.2.349-.4.5-.548a13.507,13.507,0,0,1-.1-19.074c-.946-.946-1.893-1.942-2.839-2.888C3954.9,997.173,3955.746,1009.823,3962.121,1015.351Z" transform="translate(-3937.242 -976.506)"/>
        <path id="Path_19" data-name="Path 19" class="cls-2" d="M4011.6,1012.013c.946.946,1.893,1.892,2.888,2.839,7.072-6.823,6.026-19.472-.05-24.651-.946.946-1.892,1.843-2.839,2.789A13.451,13.451,0,0,1,4011.6,1012.013Z" transform="translate(-3964.66 -976.355)"/>
      </g>
      <path id="Path_20" data-name="Path 20" class="cls-3" d="M3992.865,1008.582a4.333,4.333,0,0,0-8.665-.1c0,2.739,1.544,4.382,4.183,4.432A4.024,4.024,0,0,0,3992.865,1008.582Z" transform="translate(-3950.507 -981.441)"/>
      <path id="Path_21" data-name="Path 21" class="cls-4" d="M3991.153,1072.775c-1.295.6-2.49,1.146-3.835,1.743-.2-1.594-1.494-1.892-2.59-2.391-7.869-3.586-15.687-7.221-23.556-10.857a1.807,1.807,0,0,0-1.743,0c-8.267,3.835-16.583,7.62-24.851,11.454-.6.249-.946.946-1.544,1.594-1.046-.448-2.241-1.046-3.536-1.594,9.362-20.667,18.675-41.235,28.038-61.9a9.612,9.612,0,0,1-5.378-5.777,7.144,7.144,0,0,1,.149-4.881,8.878,8.878,0,0,1,8.566-5.876c3.486.149,6.922,3.187,7.819,6.773.747,3.038-.548,7.42-5.528,9.811C3972.428,1031.49,3981.741,1052.058,3991.153,1072.775Zm-17.032-22.809c-.1-.149-.1-.2-.149-.249-4.383-3.187-8.815-6.325-13.247-9.462a1.174,1.174,0,0,0-1,.05c-1.594,1.1-3.187,2.241-4.781,3.387-2.839,2.042-5.677,4.084-8.566,6.175.149.1.249.2.349.249,4.333,1.992,8.665,3.984,13,5.926a1.8,1.8,0,0,0,1.245-.1c3.187-1.395,6.325-2.889,9.462-4.333C3971.731,1051.062,3972.926,1050.514,3974.121,1049.966ZM3967.1,1029.8c-2.291-5.03-4.532-9.91-6.823-15.04-2.341,5.179-4.582,10.11-6.823,15.04,2.341,1.693,4.582,3.287,6.823,4.88C3962.567,1033.083,3964.809,1031.49,3967.1,1029.8Zm-30.578,37.45c6.375-2.938,12.5-5.727,18.725-8.615-4.183-1.942-8.217-3.785-12.3-5.628-2.092,4.731-4.233,9.313-6.424,14.243Zm47.51,0c-2.241-4.93-4.333-9.562-6.474-14.243-4.134,1.893-8.167,3.735-12.3,5.628,6.275,2.839,12.4,5.677,18.775,8.616Zm-19.422-64.392a4.333,4.333,0,0,0-8.665-.1c0,2.739,1.544,4.383,4.183,4.432,2.839.05,4.482-1.544,4.482-4.333Zm-17.58,41.135c.05.05.1.1.1.15,3.137-2.241,6.275-4.482,9.512-6.823-1.743-1.245-3.337-2.391-4.98-3.586C3950.117,1037.217,3948.574,1040.6,3947.03,1043.99Zm16.833-6.673c3.237,2.341,6.375,4.582,9.512,6.823.05-.05.1-.1.149-.1-1.544-3.386-3.088-6.823-4.681-10.309C3967.2,1034.926,3965.605,1036.072,3963.862,1037.317Z" transform="translate(-3923.048 -976.46)"/>
      <path id="Path_22" data-name="Path 22" class="cls-5" d="M3927.329,958.5l2.889,2.888c-6.275,6.524-9.761,14.243-9.761,23.357a32.649,32.649,0,0,0,9.761,23.406c-1,.946-1.942,1.892-2.938,2.789C3913.435,997.892,3912.489,972.892,3927.329,958.5Z" transform="translate(-3916.545 -958.5)"/>
      <path id="Path_23" data-name="Path 23" class="cls-5" d="M4041.488,1011.14c-.9-.946-1.843-1.942-2.839-2.938a32.884,32.884,0,0,0-.05-46.713l2.938-2.789C4054.785,970.9,4056.876,995.951,4041.488,1011.14Z" transform="translate(-3977.815 -958.6)"/>
      <path id="Path_24" data-name="Path 24" class="cls-5" d="M4024.1,975.688c.946-1.046,1.893-1.992,2.789-2.988,9.661,8.964,11.155,27.341.149,38.3-.946-.946-1.843-1.942-2.839-2.988a23.013,23.013,0,0,0,6.673-16.086A22.707,22.707,0,0,0,4024.1,975.688Z" transform="translate(-3970.537 -965.628)"/>
      <path id="Path_25" data-name="Path 25" class="cls-5" d="M3944.872,972.8c.946.946,1.892,1.942,2.839,2.888a22.949,22.949,0,0,0-.05,32.42c-.946.946-1.942,1.843-2.888,2.789C3934.962,1001.933,3934.115,983.159,3944.872,972.8Z" transform="translate(-3926.867 -965.678)"/>
      <path id="Path_26" data-name="Path 26" class="cls-5" d="M3964.1,1008.562a5.441,5.441,0,0,1-.5.548c-.747.8-1.444,1.544-2.191,2.341-6.375-5.528-7.271-18.177-.2-24.851.946.946,1.892,1.942,2.838,2.888A13.418,13.418,0,0,0,3964.1,1008.562Z" transform="translate(-3936.48 -972.606)"/>
      <path id="Path_27" data-name="Path 27" class="cls-5" d="M4010.7,989.089c.946-.946,1.892-1.843,2.839-2.789,6.076,5.179,7.171,17.878.05,24.651-.946-.946-1.892-1.893-2.888-2.839A13.361,13.361,0,0,0,4010.7,989.089Z" transform="translate(-3963.81 -972.455)"/>
    </g>
  </g>
</svg>
