<?xml version="1.0" encoding="UTF-8"?>
<!DOCTYPE svg PUBLIC "-//W3C//DTD SVG 1.1//EN" "http://www.w3.org/Graphics/SVG/1.1/DTD/svg11.dtd">
<!-- Creator: CorelDRAW X6 -->
<svg xmlns="http://www.w3.org/2000/svg" xml:space="preserve" width="100%" height="100%" version="1.1" style="shape-rendering:geometricPrecision; text-rendering:geometricPrecision; image-rendering:optimizeQuality; fill-rule:evenodd; clip-rule:evenodd"
viewBox="0 0 500 500"
 xmlns:xlink="http://www.w3.org/1999/xlink">
 <defs>
  <style type="text/css">
   <![CDATA[
    .fil0 {fill:#303030}
    .fil2 {fill:#A4A4A4}
    .fil3 {fill:#BEBEBE}
    .fil6 {fill:#C82800}
    .fil1 {fill:#D8D8D8}
    .fil11 {fill:url(#id0)}
    .fil7 {fill:url(#id1)}
    .fil5 {fill:url(#id2)}
    .fil4 {fill:url(#id3)}
    .fil8 {fill:url(#id4)}
    .fil9 {fill:url(#id5)}
    .fil10 {fill:url(#id6)}
   ]]>
  </style>
  <linearGradient id="id0" gradientUnits="userSpaceOnUse" x1="290.314" y1="115.217" x2="387.79" y2="212.695">
   <stop offset="0" style="stop-color:#383838"/>
   <stop offset="0.658824" style="stop-color:#606060"/>
   <stop offset="1" style="stop-color:#303030"/>
  </linearGradient>
  <linearGradient id="id1" gradientUnits="userSpaceOnUse" x1="362.589" y1="36.481" x2="463.521" y2="137.413">
   <stop offset="0" style="stop-color:#ED2F00"/>
   <stop offset="0.25098" style="stop-color:#FFA28B"/>
   <stop offset="0.701961" style="stop-color:#C82800"/>
   <stop offset="1" style="stop-color:#FF3300"/>
  </linearGradient>
  <linearGradient id="id2" gradientUnits="userSpaceOnUse" x1="312.636" y1="85.812" x2="414.458" y2="187.634">
   <stop offset="0" style="stop-color:#A4A4A4"/>
   <stop offset="0.4" style="stop-color:#686868"/>
   <stop offset="0.639216" style="stop-color:#F2F2F2"/>
   <stop offset="1" style="stop-color:#B1B1B1"/>
  </linearGradient>
  <linearGradient id="id3" gradientUnits="userSpaceOnUse" x1="342.33" y1="57.533" x2="442.736" y2="157.939">
   <stop offset="0" style="stop-color:#D8D8D8"/>
   <stop offset="0.258824" style="stop-color:#E5E5E5"/>
   <stop offset="0.658824" style="stop-color:#8A8A8A"/>
   <stop offset="1" style="stop-color:#CBCBCB"/>
  </linearGradient>
  <linearGradient id="id4" gradientUnits="userSpaceOnUse" x1="248.229" y1="293.985" x2="205.915" y2="251.671">
   <stop offset="0" style="stop-color:#17A2FF"/>
   <stop offset="1" style="stop-color:#008EED"/>
  </linearGradient>
  <linearGradient id="id5" gradientUnits="userSpaceOnUse" x1="245.038" y1="300.804" x2="274.258" y2="330.024">
   <stop offset="0" style="stop-color:#0062A4"/>
   <stop offset="1" style="stop-color:#008EED"/>
  </linearGradient>
  <linearGradient id="id6" gradientUnits="userSpaceOnUse" x1="199.563" y1="249.336" x2="175.005" y2="224.778">
   <stop offset="0" style="stop-color:#5DBEFF"/>
   <stop offset="1" style="stop-color:#17A2FF"/>
  </linearGradient>
 </defs>
 <g id="Layer_x0020_1">
  <metadata id="CorelCorpID_0Corel-Layer"/>
  <path class="fil0" d="M28 450l-8 25c0,2 0,3 1,4 1,1 2,1 4,1l25 -8 -22 -22z"/>
  <path class="fil1" d="M67 339l37 7 -71 112c-1,2 -3,2 -5,1 -2,-1 -2,-2 -2,-4l41 -116z"/>
  <path class="fil2" d="M161 433l-7 -37 -112 71c-2,1 -2,3 -1,5 1,2 2,2 4,2l116 -41z"/>
  <path class="fil3" d="M42 467c37,-23 75,-47 112,-71l-50 -50c-24,38 -48,75 -71,112 -1,1 -3,4 0,7 3,3 5,5 9,2z"/>
  <polygon class="fil4" points="292,108 392,208 448,152 348,52 "/>
  <path class="fil5" d="M310 90l100 100 4 -4 -100 -100 -4 4zm8 -8l100 100 4 -4 -100 -100 -4 4zm8 -8l100 100 4 -5 -99 -99 -5 4z"/>
  <path class="fil6" d="M407 27l66 66c9,10 9,25 0,34l-8 8 -100 -100 8 -8c9,-9 24,-9 34,0z"/>
  <path class="fil7" d="M399 36l66 66c9,9 9,24 0,33l-17 17 -100 -100 16 -16c10,-10 25,-10 35,0z"/>
  <path class="fil8" d="M356 194l-50 -50 -201 201c-14,14 -13,36 0,50l0 0c14,13 36,14 50,0l201 -201z"/>
  <path class="fil9" d="M356 194l25 25 -201 201c-14,14 -30,19 -37,12l0 0c-7,-7 -2,-23 12,-37l201 -201z"/>
  <path class="fil10" d="M281 119l25 25 -201 201c-14,14 -30,19 -37,12l0 0c-7,-7 -2,-23 12,-37l201 -201z"/>
  <polygon class="fil11" points="292,108 392,208 381,219 281,119 "/>
 </g>
</svg>
