<svg width="21" height="25" viewBox="0 0 21 25" fill="none" xmlns="http://www.w3.org/2000/svg">
<path d="M12.3849 6.63609C12.1423 5.73957 11.2169 4.98007 10.2775 4.94282C9.77495 4.93181 9.28142 5.0678 8.86694 5.33153C8.45246 5.59526 8.13803 5.97331 7.96826 6.41209C7.80755 6.80304 7.79342 7.23279 7.92811 7.63211C8.04174 7.95626 8.23033 8.25348 8.48075 8.50295C8.73117 8.75242 9.03735 8.94814 9.37785 9.0764C6.85412 14.2433 4.34364 19.3854 1.81964 24.5517C2.16874 24.7017 2.50432 24.838 2.77282 24.9502C2.93456 24.7885 3.04237 24.6142 3.18902 24.5517C5.41757 23.5929 7.65935 22.6344 9.88817 21.6881C9.96014 21.6514 10.041 21.6321 10.1231 21.6321C10.2053 21.6321 10.286 21.6514 10.358 21.6881C12.4655 22.5969 14.5868 23.4934 16.7081 24.4022C17.0046 24.5272 17.3523 24.6022 17.406 25C17.7685 24.85 18.0907 24.7137 18.4398 24.5642C15.9158 19.3848 13.4056 14.2428 10.8816 9.0889C12.2372 8.49114 12.5998 7.39561 12.3849 6.63609ZM8.97514 7.05936C8.96416 6.91505 8.98693 6.77023 9.04194 6.63485C9.09695 6.49948 9.18287 6.37673 9.29381 6.27503C9.40475 6.17333 9.53814 6.09507 9.68474 6.04562C9.83134 5.99618 9.98773 5.97673 10.1432 5.98859C10.3249 5.97927 10.5063 6.01062 10.6722 6.07997C10.8381 6.14933 10.9836 6.25466 11.0964 6.38709C10.8786 6.25097 10.6205 6.18107 10.358 6.18709C10.2025 6.17524 10.0462 6.19469 9.89956 6.24413C9.75295 6.29357 9.61963 6.37183 9.50869 6.47354C9.39775 6.57524 9.31183 6.69798 9.25682 6.83336C9.20181 6.96874 9.17898 7.11354 9.18996 7.25785C9.18389 7.51294 9.2589 7.76404 9.40563 7.97987C9.25985 7.86931 9.1448 7.72798 9.07004 7.56769C8.99528 7.4074 8.96299 7.23283 8.97593 7.0586L8.97514 7.05936ZM7.834 14.8035C8.29039 15.1035 8.72014 15.3888 9.17653 15.7C8.30393 16.2853 7.45795 16.8456 6.61231 17.4058C6.59883 17.3933 6.58539 17.3808 6.58539 17.3686C6.98813 16.5208 7.4043 15.675 7.834 14.8035ZM3.73948 23.1827C4.33012 21.9626 4.89409 20.8046 5.48473 19.6219C6.58566 20.0949 7.67285 20.5556 8.80047 21.0286C7.10891 21.7507 5.45774 22.4479 3.73922 23.1824L3.73948 23.1827ZM16.5468 23.1827C14.8151 22.4482 13.1772 21.7509 11.4992 21.0289C12.6136 20.5559 13.7007 20.0951 14.8148 19.6219C15.3788 20.7921 15.9425 21.9501 16.5466 23.1827H16.5468ZM13.8754 18.8623C13.5519 18.9993 13.2311 19.1486 12.8955 19.2856C12.0496 19.6466 11.1905 20.0076 10.3448 20.3689C10.2397 20.4137 10.1207 20.4225 10.0092 20.3939C8.84115 19.9083 7.67336 19.4104 6.50477 18.9124C6.47781 18.8999 6.45089 18.8751 6.41072 18.8501C7.18924 18.3271 7.95454 17.8166 8.71959 17.3063C9.14928 17.0198 9.56551 16.7335 10.0084 16.4598C10.0496 16.4394 10.0951 16.4277 10.1417 16.4255C10.1883 16.4234 10.2348 16.4308 10.278 16.4473C11.4727 17.2316 12.654 18.0286 13.849 18.8128C13.849 18.8128 13.849 18.8254 13.8759 18.8629L13.8754 18.8623ZM13.7136 17.3683C13.7002 17.3808 13.6867 17.3933 13.6735 17.3933C12.8278 16.833 11.9819 16.2728 11.1093 15.6875C11.5657 15.3763 11.9954 15.09 12.4518 14.791C12.8815 15.675 13.2974 16.5215 13.7136 17.3683ZM11.982 13.8325C11.3644 14.2432 10.7603 14.6542 10.1427 15.0525C9.53856 14.6417 8.93445 14.2432 8.30338 13.8325C8.90749 12.6 9.5116 11.3672 10.1427 10.0724C10.7735 11.3424 11.3641 12.575 11.9817 13.8325H11.982Z" fill="#F4F4F4"/>
<path d="M3.0012 13.5958C3.25621 13.3708 3.5115 13.135 3.7932 12.8985C2.08816 11.2675 1.14843 9.32521 1.16191 7.04692C1.16191 4.76837 2.10164 2.83858 3.7932 1.20755L3.01436 0.485535C-0.986083 4.09611 -0.730752 10.3337 3.0012 13.5958Z" fill="#F4F4F4"/>
<path d="M16.5064 12.8857C16.776 13.1473 17.0165 13.3838 17.2718 13.6203C21.4199 9.82295 20.857 3.56032 17.2987 0.51001C17.0437 0.735014 16.7752 0.970769 16.5067 1.20727C18.1983 2.83831 19.138 4.7806 19.138 7.05889C19.1356 8.14313 18.9019 9.2162 18.4502 10.2163C17.9986 11.2163 17.3379 12.1236 16.5064 12.8857Z" fill="#F4F4F4"/>
<path d="M14.5733 11.081C14.8429 11.3425 15.0968 11.579 15.3518 11.828C18.3188 9.08894 17.916 4.4946 15.3117 2.25281C15.0691 2.48931 14.8283 2.73833 14.5598 2.99983C15.1332 3.52939 15.5883 4.15854 15.8993 4.85134C16.2103 5.54414 16.3711 6.28699 16.3723 7.03743C16.3736 7.78787 16.2153 8.5312 15.9067 9.22489C15.598 9.91858 15.1449 10.549 14.5733 11.0802V11.081Z" fill="#F4F4F4"/>
<path d="M4.93424 11.7912C5.20381 11.5547 5.45773 11.3182 5.71301 11.094C5.13927 10.5614 4.68446 9.92903 4.37456 9.23319C4.06466 8.53734 3.90577 7.79165 3.90703 7.03879C3.90828 6.28593 4.06966 5.54069 4.38187 4.84574C4.69408 4.15079 5.15099 3.51976 5.7265 2.9888C5.47149 2.75229 5.21624 2.50329 4.96123 2.26678C2.06144 4.85559 2.28947 9.54943 4.93424 11.7912Z" fill="#F4F4F4"/>
<path d="M6.81398 10.1969C7.01535 10.0102 7.20322 9.81094 7.40459 9.61168C7.4585 9.56168 7.49867 9.51167 7.53937 9.47467C6.85523 8.845 6.46818 7.98944 6.46312 7.09555C6.45807 6.20166 6.8354 5.34238 7.51239 4.70608C7.25737 4.46958 7.00212 4.22057 6.74711 3.98407C4.86739 5.65235 5.09546 8.81492 6.81398 10.1969Z" fill="#F4F4F4"/>
<path d="M12.761 9.40019C13.016 9.6367 13.2713 9.8732 13.5395 10.11C15.4459 8.40417 15.164 5.24186 13.526 3.94708C13.271 4.18359 13.016 4.40784 12.7608 4.64435C13.0975 4.9566 13.3646 5.32731 13.5468 5.73531C13.7291 6.14331 13.8229 6.58059 13.8229 7.02222C13.8229 7.46384 13.7292 7.90116 13.547 8.30917C13.3648 8.71718 13.0977 9.08791 12.761 9.40019Z" fill="#F4F4F4"/>
<path d="M11.4185 6.78537C11.419 6.49993 11.298 6.22583 11.0818 6.02266C10.8656 5.81949 10.5717 5.70368 10.264 5.70039C9.95619 5.6971 9.65946 5.80658 9.43826 6.00507C9.21707 6.20356 9.08926 6.475 9.08267 6.76038C9.08267 7.44514 9.49892 7.8559 10.2103 7.8684C10.37 7.8859 10.5319 7.87023 10.6843 7.82255C10.8367 7.77486 10.9758 7.69635 11.0914 7.59269C11.2071 7.48902 11.2964 7.36281 11.353 7.22319C11.4095 7.08356 11.4319 6.93401 11.4185 6.78537Z" fill="#FBC316"/>
<path d="M18.3592 24.0792C18.0101 24.2292 17.688 24.3657 17.3254 24.515C17.2715 24.1165 16.9226 24.042 16.6272 23.9172C14.5059 23.0207 12.3985 22.112 10.2772 21.2029C10.2052 21.1662 10.1244 21.1469 10.0422 21.1469C9.96009 21.1469 9.87925 21.1662 9.80728 21.2029C7.57873 22.1617 5.33695 23.108 3.10813 24.0665C2.94639 24.1287 2.85313 24.303 2.69193 24.465C2.40996 24.353 2.08785 24.2035 1.73875 24.0665C4.26249 18.8996 6.77296 13.7575 9.29697 8.59117C8.95886 8.45931 8.65485 8.26239 8.40493 8.01342C8.15501 7.76444 7.96489 7.46909 7.84723 7.1469C7.70565 6.74839 7.71985 6.31639 7.88737 5.92663C8.05719 5.48791 8.37165 5.10989 8.78612 4.84621C9.2006 4.58253 9.69409 4.44656 10.1966 4.45759C11.1363 4.49484 12.0625 5.25436 12.3043 6.15088C12.5057 6.91039 12.1566 8.00592 10.8142 8.60369C13.3115 13.7578 15.822 18.8999 18.3592 24.0792ZM13.7679 18.3769C13.7409 18.3396 13.7409 18.3269 13.7277 18.3146C12.5461 17.5179 11.3514 16.7333 10.1567 15.9491C10.1135 15.9326 10.067 15.9252 10.0204 15.9274C9.97378 15.9295 9.92828 15.9412 9.88711 15.9616C9.45742 16.2366 9.02799 16.5218 8.59829 16.8083C7.83298 17.3189 7.06789 17.8294 6.28909 18.3521C6.32926 18.3771 6.35625 18.4021 6.38321 18.4144C7.55126 18.9124 8.71905 19.4104 9.88764 19.8959C9.99914 19.925 10.1182 19.9161 10.2232 19.8709C11.0823 19.5222 11.9283 19.1486 12.774 18.7876C13.1236 18.6509 13.4457 18.5139 13.7679 18.3769ZM11.8752 13.3353C11.2576 12.0778 10.6535 10.8577 10.0359 9.5752C9.40485 10.87 8.80074 12.1028 8.19663 13.3353C8.8277 13.7585 9.43181 14.1571 10.0359 14.5553C10.6532 14.1561 11.2576 13.7578 11.8752 13.3353ZM3.63221 22.698C5.35073 21.9634 7.00188 21.2662 8.67996 20.5442C7.55235 20.0587 6.46488 19.5979 5.36422 19.1371C4.80027 20.3199 4.2231 21.4654 3.63247 22.698H3.63221ZM16.4396 22.698C15.8355 21.4654 15.2715 20.3074 14.6944 19.1371C13.58 19.6104 12.4928 20.0709 11.3786 20.5442C13.0702 21.2539 14.7213 21.9634 16.4398 22.6982L16.4396 22.698ZM11.204 6.59963C11.2045 6.31419 11.0835 6.04009 10.8673 5.83692C10.6511 5.63375 10.3571 5.51793 10.0493 5.51464C9.74158 5.51134 9.44485 5.62084 9.22365 5.81933C9.00245 6.01782 8.87472 6.28926 8.86812 6.57464C8.86812 7.2594 9.28431 7.67041 9.99571 7.68266C10.761 7.69516 11.204 7.29665 11.204 6.59939V6.59963ZM6.46488 16.8836C6.47836 16.8961 6.4918 16.9086 6.4918 16.9211C7.33745 16.3608 8.18342 15.8006 9.05602 15.2153C8.58616 14.904 8.15647 14.6176 7.71356 14.3188C7.29707 15.1896 6.8811 16.0353 6.46488 16.8828V16.8836ZM11.0026 15.2153C11.8752 15.8006 12.7211 16.3608 13.5667 16.9211C13.5802 16.9086 13.5937 16.8961 13.6069 16.8961C13.1907 16.0496 12.7745 15.1903 12.345 14.3188C11.9021 14.6168 11.4722 14.9033 11.0023 15.2146L11.0026 15.2153Z" fill="#000078"/>
<path d="M2.90724 0L3.68601 0.722015C1.99445 2.35305 1.05472 4.28283 1.05472 6.56138C1.05031 7.65021 1.28084 8.72886 1.73273 9.73381C2.18463 10.7388 2.84875 11.6497 3.68601 12.413C3.41644 12.6495 3.16251 12.886 2.89401 13.1103C-0.83821 9.8482 -1.09321 3.59807 2.90724 0Z" fill="#37BEB7"/>
<path d="M17.1645 13.1353C16.9218 12.8988 16.6676 12.6498 16.3991 12.4008C17.2298 11.6356 17.8889 10.7254 18.3382 9.72271C18.7875 8.72003 19.0182 7.64474 19.0169 6.55892C19.0156 5.4731 18.7825 4.39826 18.3309 3.39648C17.8792 2.39469 17.2181 1.4858 16.3857 0.722289L17.1777 0.0250244C20.749 3.07509 21.3126 9.33796 17.1645 13.1353Z" fill="#37BEB7"/>
<path d="M14.4391 2.51508C14.6941 2.25357 14.9494 2.01707 15.1909 1.76807C17.7952 4.00911 18.198 8.60345 15.2311 11.3433C14.9761 11.1067 14.7343 10.8577 14.4658 10.5962C15.6103 9.52601 16.2562 8.08197 16.2646 6.57467C16.2668 5.8194 16.1065 5.07131 15.793 4.37423C15.4795 3.67715 15.0193 3.04509 14.4391 2.51508Z" fill="#37BEB7"/>
<path d="M4.85366 1.78058C5.10868 2.01708 5.36365 2.26609 5.61894 2.50259C4.45984 3.57655 3.80745 5.03307 3.80492 6.55259C3.8024 8.0721 4.44992 9.53049 5.60545 10.6078C5.35043 10.8443 5.08195 11.0685 4.82694 11.305C2.18217 9.06397 1.95388 4.37038 4.85366 1.78058Z" fill="#37BEB7"/>
<path d="M7.44559 8.98922C7.40408 9.03767 7.35904 9.08344 7.31081 9.12621C7.10944 9.32622 6.9215 9.51222 6.72013 9.71147C5.00161 8.32945 4.76009 5.16713 6.66623 3.4986C6.92124 3.7351 7.1763 3.98411 7.43131 4.22061C7.09239 4.53343 6.82366 4.90546 6.64076 5.31519C6.45786 5.72492 6.3644 6.16423 6.36573 6.60768C6.36705 7.05114 6.46317 7.48994 6.64853 7.89872C6.83388 8.30751 7.1048 8.67815 7.44559 8.98922Z" fill="#37BEB7"/>
<path d="M12.6402 4.15857C12.8952 3.92206 13.1503 3.69781 13.4056 3.4613C15.0435 4.75608 15.3387 7.93089 13.419 9.62418C13.164 9.38767 12.909 9.15092 12.6405 8.91442C12.9801 8.60366 13.2498 8.23341 13.4339 7.82519C13.6179 7.41697 13.7127 6.97891 13.7126 6.53644C13.7126 6.09397 13.6178 5.65592 13.4337 5.24772C13.2496 4.83951 12.9799 4.4693 12.6402 4.15857Z" fill="#37BEB7"/>
</svg>
