<svg width="29" height="30" viewBox="0 0 29 30" fill="none" xmlns="http://www.w3.org/2000/svg">
<path d="M28.0007 1.35182C27.6839 0.923244 27.3078 0.583275 26.8939 0.351329C26.4799 0.119382 26.0363 0 25.5882 0C25.1402 0 24.6965 0.119382 24.2826 0.351329C23.8687 0.583275 23.4925 0.923244 23.1757 1.35182L10.2353 18.8574L5.82426 12.8903C5.50745 12.4617 5.13134 12.1217 4.7174 11.8898C4.30347 11.6578 3.85981 11.5385 3.41177 11.5385C2.50691 11.5385 1.63912 12.0247 0.999285 12.8903C0.682472 13.3188 0.431163 13.8276 0.259705 14.3876C0.0882477 14.9476 0 15.5477 0 16.1538C0 17.3779 0.359453 18.5519 0.999285 19.4174L7.82281 28.6482C8.13962 29.0768 8.51573 29.4167 8.92967 29.6487C9.3436 29.8806 9.78726 30 10.2353 30C10.6833 30 11.127 29.8806 11.5409 29.6487C11.9549 29.4167 12.331 29.0768 12.6478 28.6482L28.0007 7.87898C28.3175 7.4504 28.5688 6.9416 28.7403 6.38164C28.9118 5.82167 29 5.2215 29 4.6154C29 4.0093 28.9118 3.40913 28.7403 2.84917C28.5688 2.2892 28.3175 1.7804 28.0007 1.35182V1.35182Z" fill="#11FF1B"/>
</svg>
