<svg width="31" height="31" viewBox="0 0 31 31" fill="none" xmlns="http://www.w3.org/2000/svg">
<path fill-rule="evenodd" clip-rule="evenodd" d="M15.5578 0.650024C17.2003 0.650024 18.5318 1.99029 18.5318 3.64355V12.6241H27.4538C29.0963 12.6241 30.4278 13.9644 30.4278 15.6177C30.4278 17.271 29.0963 18.6112 27.4538 18.6112H18.5318V27.5918C18.5318 29.2451 17.2003 30.5853 15.5578 30.5853C13.9153 30.5853 12.5838 29.2451 12.5838 27.5918V18.6112H3.66185C2.01938 18.6112 0.687866 17.271 0.687866 15.6177C0.687866 13.9644 2.01938 12.6241 3.66185 12.6241H12.5838V3.64355C12.5838 1.99029 13.9153 0.650024 15.5578 0.650024Z" fill="#6AF778"/>
</svg>
