<?xml version="1.0" ?><svg enable-background="new 0 0 512 512" id="Layer_1" version="1.1" viewBox="0 0 512 512" xml:space="preserve" xmlns="http://www.w3.org/2000/svg" xmlns:xlink="http://www.w3.org/1999/xlink"><g><g><linearGradient gradientUnits="userSpaceOnUse" id="SVGID_1_" x1="-0.0000027" x2="512" y1="256" y2="256"><stop offset="0" style="stop-color:#A364AB"/><stop offset="1" style="stop-color:#8C3D96"/></linearGradient><circle cx="256" cy="256" fill="url(#SVGID_1_)" r="256"/><linearGradient gradientUnits="userSpaceOnUse" id="SVGID_2_" x1="42.6666641" x2="469.3333435" y1="256.0005188" y2="256.0005188"><stop offset="0" style="stop-color:#8C3D96"/><stop offset="1" style="stop-color:#A364AB"/></linearGradient><path d="M256,469.3338623c-117.6315155,0-213.3333435-95.7023926-213.3333435-213.3333435    c0-117.6314545,95.7018204-213.333313,213.3333435-213.333313c117.6356812,0,213.3333435,95.7018661,213.3333435,213.333313    C469.3333435,373.6314697,373.6356812,469.3338623,256,469.3338623z" fill="url(#SVGID_2_)"/></g><path d="M346.6282043,261.587738c2.9706726-6.799469,4.643219-14.2960052,4.643219-22.1898651   c0-30.6592102-24.8533325-55.5130768-55.5119934-55.5130768c-26.5637512,0-48.738678,18.6709442-54.1967621,43.5951996   c-7.4304504-9.0709229-18.7131195-14.8629303-31.353653-14.8629303c-22.3770599,0-40.5173187,18.1392059-40.5173187,40.5157318   c0,3.7455902,0.5493317,7.3552094,1.5002594,10.7989349C155.3386688,269.7226563,144,284.8912048,144,302.7498779   c0,22.8442688,18.5188904,41.3647766,41.3631592,41.3647766h157.272522C365.4804993,344.1146545,384,325.5941467,384,302.7498779   C384,281.2533264,367.5978088,263.5983887,346.6282043,261.587738z M263.9983521,325.9893188l-31.3669281-31.3717041   l7.0704041-7.0698853l19.296524,19.3002625v-51.0975952h10v51.0986633l19.3018799-19.3013306l7.0704346,7.0698853   L263.9983521,325.9893188z" opacity="0.3"/><path d="M338.6282349,253.587738c2.9706421-6.799469,4.6431885-14.2960052,4.6431885-22.1898651   c0-30.6592102-24.8533325-55.5130768-55.5119934-55.5130768c-26.5637512,0-48.738678,18.670929-54.1967621,43.5951996   c-7.4304504-9.0709229-18.7131195-14.8629303-31.353653-14.8629303c-22.3770599,0-40.5173187,18.1392059-40.5173187,40.5157318   c0,3.7456055,0.5493317,7.3552094,1.5002594,10.7989349C147.3386688,261.7226563,136,276.8912048,136,294.7498779   c0,22.8442688,18.5188904,41.3647766,41.3631592,41.3647766h157.272522C357.4804993,336.1146545,376,317.5941467,376,294.7498779   C376,273.2533264,359.5978088,255.5984039,338.6282349,253.587738z M255.9983521,317.9893188l-31.3669281-31.3717041   l7.0704041-7.0698853l19.296524,19.3002625v-51.0975952h10v51.0986633l19.3018799-19.3013306l7.0704346,7.0698853   L255.9983521,317.9893188z" fill="#FFFFFF"/></g></svg>