<svg width="50" height="35" viewBox="0 0 50 35" fill="none" xmlns="http://www.w3.org/2000/svg">
<path d="M40.4916 12.3915C39.8072 5.44783 33.8709 0 26.5626 0C20.9076 0 16.0651 3.2687 13.8337 7.9587C13.1618 7.75174 12.4617 7.6087 11.7195 7.6087C7.83643 7.6087 4.68779 10.6765 4.68779 14.4565C4.68779 15.2083 4.84249 15.9189 5.07219 16.593C2.05169 18.308 0 21.458 0 25.1072C0 30.5702 4.54716 34.9985 10.1569 34.9985V35H38.2821V34.9985C44.7559 34.9985 50 29.89 50 23.5854C50 18.0204 45.906 13.3989 40.4916 12.3915V12.3915ZM32.2051 26.7963C31.4676 27.5161 30.2738 27.5161 29.5362 26.7963L25.7469 23.1076L22.0061 26.7522C21.2701 27.4674 20.0809 27.4674 19.345 26.7522C18.6105 26.0354 18.6105 24.8774 19.345 24.1607L23.0858 20.5176L19.2981 16.8289C18.5605 16.1091 18.5605 14.9465 19.2981 14.2283C20.0356 13.5085 21.2295 13.5085 21.967 14.2283L25.7547 17.9185L29.5456 14.2267C30.2816 13.51 31.4707 13.51 32.2067 14.2267C32.9427 14.9435 32.9427 16.103 32.2067 16.8183L28.4158 20.51L32.2051 24.1987C32.9442 24.9154 32.9442 26.0811 32.2051 26.7963V26.7963Z" fill="#F12718"/>
</svg>
