<svg width="64" height="64" viewBox="0 0 64 64" fill="none" xmlns="http://www.w3.org/2000/svg">
<path d="M32 64C49.6731 64 64 49.6731 64 32C64 14.3269 49.6731 0 32 0C14.3269 0 0 14.3269 0 32C0 49.6731 14.3269 64 32 64Z" fill="#383ED6"/>
<path d="M32 56C45.2548 56 56 45.2548 56 32C56 18.7452 45.2548 8 32 8C18.7452 8 8 18.7452 8 32C8 45.2548 18.7452 56 32 56Z" fill="#A68BAF"/>
<path d="M24.38 32.89C26.5167 31.0627 28.9086 29.5568 31.48 28.42C32.5455 27.9253 33.6774 27.5884 34.84 27.42C35.0399 27.3765 35.2466 27.3737 35.4475 27.412C35.6485 27.4503 35.8397 27.5287 36.0097 27.6426C36.1796 27.7565 36.3248 27.9036 36.4366 28.075C36.5483 28.2463 36.6243 28.4385 36.66 28.64C36.8592 29.6046 36.8215 30.6031 36.55 31.55C35.83 34.62 34.98 37.66 34.2 40.72C34.0199 41.2795 33.9223 41.8623 33.91 42.45C33.91 42.94 34.1 43.08 34.58 42.96C35.3667 42.7419 36.1154 42.4046 36.8 41.96C37.12 41.76 37.42 41.55 37.72 41.33C38.02 41.11 38.03 41.1 38.27 41.42L38.99 42.42V42.54C38.7661 42.7029 38.5585 42.8871 38.37 43.09C35.9486 45.5241 32.9098 47.2527 29.58 48.09H28.41C27.967 47.9949 27.5693 47.7521 27.2823 47.4015C26.9952 47.0508 26.8358 46.6131 26.83 46.16C26.7454 45.4118 26.7859 44.6548 26.95 43.92C27.5 41.26 28.2 38.63 28.81 35.98C29.02 35.06 29.29 34.15 29.43 33.21C29.5 32.75 29.35 32.62 28.9 32.72C28.778 32.7456 28.6577 32.779 28.54 32.82C27.4915 33.1957 26.4859 33.6818 25.54 34.27C25.32 34.41 25.21 34.38 25.09 34.15C24.88 33.77 24.65 33.4 24.43 33.03L24.38 32.89Z" fill="white"/>
<path d="M36.21 16.29C36.6344 16.3809 37.0424 16.5361 37.42 16.75C37.953 17.1287 38.358 17.6606 38.5813 18.2751C38.8046 18.8896 38.8355 19.5575 38.67 20.19C38.4576 21.0321 37.9917 21.7887 37.3353 22.3574C36.679 22.9262 35.8638 23.2796 35 23.37C34.5363 23.4446 34.0625 23.4264 33.6059 23.3165C33.1493 23.2067 32.719 23.0073 32.34 22.73C31.8037 22.3031 31.4585 21.681 31.38 21C31.2595 20.3357 31.3091 19.6517 31.5242 19.0118C31.7392 18.3718 32.1128 17.7967 32.61 17.34C33.2294 16.7569 34.0099 16.3736 34.85 16.24L36.21 16.29Z" fill="white"/>
</svg>
