<svg width="44" height="40" viewBox="0 0 44 40" fill="none" xmlns="http://www.w3.org/2000/svg">
<path d="M2.47504 37.75V2.25H32.8862L41.525 10.1035V37.75H2.47504Z" fill="#DCD5F2"/>
<path d="M32.7723 2.5L41.25 10.207V37.5H2.75001V2.5H32.7723ZM33 2H2.20001V38H41.8V10L33 2Z" fill="#8B75A1"/>
<path d="M37.125 19.25H6.875V37.75H37.125V19.25Z" fill="white"/>
<path d="M36.85 19.5V37.5H7.14998V19.5H36.85ZM37.4 19H6.59998V38H37.4V19Z" fill="#788B9C"/>
<path d="M29.7 2H9.90002V13C9.90002 13.5525 10.3923 14 11 14H29.7V2Z" fill="#8B75A1"/>
<path d="M14.3 13.75C13.8452 13.75 13.475 13.4135 13.475 13V3C13.475 2.5865 13.8452 2.25 14.3 2.25H31.9C32.3549 2.25 32.725 2.5865 32.725 3V13C32.725 13.4135 32.3549 13.75 31.9 13.75H14.3Z" fill="#C8D1DB"/>
<path d="M31.9 2.5C32.2031 2.5 32.45 2.7245 32.45 3V13C32.45 13.2755 32.2031 13.5 31.9 13.5H14.3C13.997 13.5 13.75 13.2755 13.75 13V3C13.75 2.7245 13.997 2.5 14.3 2.5H31.9ZM31.9 2H14.3C13.6923 2 13.2 2.4475 13.2 3V13C13.2 13.5525 13.6923 14 14.3 14H31.9C32.5078 14 33 13.5525 33 13V3C33 2.4475 32.5078 2 31.9 2Z" fill="#66798F"/>
<path d="M33 24.5H11V25H33V24.5Z" fill="#C2E8FF"/>
<path d="M33 28.5H11V29H33V28.5Z" fill="#C2E8FF"/>
<path d="M33 32.5H11V33H33V32.5Z" fill="#C2E8FF"/>
<path d="M28.6 5H25.3V11H28.6V5Z" fill="#66798F"/>
</svg>
