<svg width="301" height="244" viewBox="0 0 301 244" fill="none" xmlns="http://www.w3.org/2000/svg">
<path d="M300.588 34.0209H260.467C259.574 32.3446 258.612 30.7102 257.543 29.1281C249.229 16.3986 235.851 6.9264 220.069 2.59394C204.287 -1.73853 187.255 -0.614066 172.36 5.74386C157.464 12.1018 145.794 23.2277 139.67 36.9105C133.546 50.5933 133.415 65.8313 139.304 79.5962L18.5637 187.248L0 203.896L13.139 215.61L47.5188 207.437C73.3472 221.27 103.236 227.863 133.312 226.363C163.389 224.863 192.268 215.338 216.207 199.023C240.147 182.708 258.045 160.354 267.581 134.858C277.118 109.361 277.855 81.8971 269.696 56.0228L300.588 34.0209Z" fill="#BFAC9E"/>
<path d="M206.584 201.654H197.179V243.562H206.584V201.654Z" fill="#BFAC9E"/>
<path d="M159.582 201.654H150.177V243.562H159.582V201.654Z" fill="#BFAC9E"/>
<path d="M211.281 50.7843C219.069 50.7843 225.382 45.1554 225.382 38.2118C225.382 31.2682 219.069 25.6393 211.281 25.6393C203.492 25.6393 197.179 31.2682 197.179 38.2118C197.179 45.1554 203.492 50.7843 211.281 50.7843Z" fill="#E2E3E5"/>
</svg>
