<?xml version="1.0" ?><!DOCTYPE svg  PUBLIC '-//W3C//DTD SVG 1.1//EN'  'http://www.w3.org/Graphics/SVG/1.1/DTD/svg11.dtd'><svg enable-background="new 0 0 128 128" id="Слой_1" version="1.1" viewBox="0 0 128 128" xml:space="preserve" xmlns="http://www.w3.org/2000/svg" xmlns:xlink="http://www.w3.org/1999/xlink"><g><g><path d="M48.8,25.1l-1-1c-1.3-1.3-3-2-4.8-2H22.6c-3.7,0-6.8,3-6.8,6.8l0,70.3c0,3.7,3,6.8,6.8,6.8h94.7    c3.7,0,6.8-3,6.8-6.8V33.8c0-3.7-3-6.8-6.8-6.8H53.6C51.8,27.1,50.1,26.4,48.8,25.1z" fill="#F1ED7B"/></g><g opacity="0.1"><path d="M48.8,25.1l-1-1c-1.3-1.3-3-2-4.8-2H22.6c-3.7,0-6.8,3-6.8,6.8l0,70.3c0,3.7,3,6.8,6.8,6.8h94.7    c3.7,0,6.8-3,6.8-6.8V33.8c0-3.7-3-6.8-6.8-6.8H53.6C51.8,27.1,50.1,26.4,48.8,25.1z" fill="#0E1115"/></g><g><path d="M117.2,106.9H22.6c-4.3,0-7.8-3.5-7.8-7.8V28.8c0-4.3,3.5-7.8,7.8-7.8H43c2.1,0,4,0.8,5.5,2.3l1,1    c1.1,1.1,2.5,1.7,4.1,1.7h63.7c4.3,0,7.8,3.5,7.8,7.8v65.3C125,103.4,121.5,106.9,117.2,106.9z M22.6,23.1c-3.2,0-5.8,2.6-5.8,5.8    v70.3c0,3.2,2.6,5.8,5.8,5.8h94.7c3.2,0,5.8-2.6,5.8-5.8V33.8c0-3.2-2.6-5.8-5.8-5.8H53.6c-2.1,0-4-0.8-5.5-2.3l-1-1    c-1.1-1.1-2.5-1.7-4.1-1.7H22.6z" fill="#62355C"/></g><g><path d="M26,32.1h87.9c3.7,0,6.8,3,6.8,6.8v56.2c0,3.7-3,6.8-6.8,6.8H26c-3.7,0-6.8-3-6.8-6.8V38.9    C19.2,35.2,22.2,32.1,26,32.1z" fill="#FFFFFF"/></g><g><path d="M113.9,102.9H26c-4.3,0-7.8-3.5-7.8-7.8V38.9c0-4.3,3.5-7.8,7.8-7.8h87.9c4.3,0,7.8,3.5,7.8,7.8v56.2    C121.6,99.4,118.1,102.9,113.9,102.9z M26,33.1c-3.2,0-5.8,2.6-5.8,5.8v56.2c0,3.2,2.6,5.8,5.8,5.8h87.9c3.2,0,5.8-2.6,5.8-5.8    V38.9c0-3.2-2.6-5.8-5.8-5.8H26z" fill="#62355C"/></g><g><path d="M19.2,104.6l-4.8-59.7c-0.3-3.9,2.8-7.3,6.7-7.3H109c3.5,0,6.5,2.7,6.7,6.2l4.9,60.8" fill="#FFFFFF"/></g><g><path d="M120.6,105.6c-0.5,0-1-0.4-1-0.9l-4.9-60.8c-0.2-3-2.8-5.3-5.7-5.3H21.1c-1.6,0-3.1,0.7-4.2,1.9    c-1.1,1.2-1.6,2.7-1.5,4.4l4.8,59.7c0,0.5-0.4,1-0.9,1.1c-0.5,0-1-0.4-1.1-0.9l-4.8-59.7c-0.2-2.2,0.6-4.3,2-5.9    c1.5-1.6,3.5-2.5,5.7-2.5H109c4,0,7.4,3.1,7.7,7.1l4.9,60.8C121.7,105,121.2,105.5,120.6,105.6    C120.7,105.6,120.6,105.6,120.6,105.6z" fill="#62355C"/></g><g><line fill="#0E1115" x1="19.2" x2="11.1" y1="105.9" y2="40.3"/></g><g><path d="M19.2,104.6L8.6,51C7.8,46.8,11,43,15.3,43h87.6c3.2,0,6,2.3,6.6,5.5l11.1,56.2" fill="#FFFFFF"/></g><g><path d="M120.6,105.6c-0.5,0-0.9-0.3-1-0.8l-11.1-56.2c-0.5-2.7-2.9-4.6-5.7-4.6H15.3c-1.7,0-3.4,0.8-4.5,2.1    c-1.1,1.3-1.5,3.1-1.2,4.8l10.6,53.5c0.1,0.5-0.2,1.1-0.8,1.2c-0.5,0.1-1.1-0.2-1.2-0.8L7.6,51.2c-0.5-2.3,0.1-4.6,1.6-6.4    c1.5-1.8,3.7-2.8,6-2.8h87.6c3.7,0,6.9,2.6,7.6,6.3l11.1,56.2c0.1,0.5-0.2,1.1-0.8,1.2C120.7,105.6,120.7,105.6,120.6,105.6z" fill="#62355C"/></g><g><path d="M10.8,46.4h96c3.2,0,5.9,2.2,6.6,5.3l10.4,46c1,4.2-2.3,8.3-6.6,8.3h-96c-3.2,0-5.9-2.2-6.6-5.3l-10.4-46    C3.2,50.4,6.4,46.4,10.8,46.4z" fill="#F1ED7B"/></g><g><path d="M117.2,106.9h-96c-3.6,0-6.8-2.5-7.6-6l-10.4-46c-0.5-2.3,0-4.7,1.5-6.6c1.5-1.9,3.7-2.9,6.1-2.9h96    c3.6,0,6.8,2.5,7.6,6l10.4,46c0.5,2.3,0,4.7-1.5,6.6C121.8,105.9,119.6,106.9,117.2,106.9z M10.8,47.4c-1.8,0-3.4,0.8-4.5,2.2    c-1.1,1.4-1.5,3.2-1.1,4.9l10.4,46c0.6,2.6,2.9,4.5,5.6,4.5h96c1.8,0,3.4-0.8,4.5-2.2c1.1-1.4,1.5-3.2,1.1-4.9l-10.4-46    c-0.6-2.6-2.9-4.5-5.6-4.5H10.8z" fill="#62355C"/></g></g></svg>