<svg width="51" height="45" viewBox="0 0 51 45" fill="none" xmlns="http://www.w3.org/2000/svg">
<path d="M23.6025 1.05701L0.282496 41.447C0.0969841 41.7703 -0.000425494 42.1367 1.39709e-06 42.5095C0.000428288 42.8822 0.0986764 43.2484 0.284928 43.5713C0.47118 43.8942 0.738913 44.1625 1.06137 44.3496C1.38383 44.5366 1.74973 44.6357 2.1225 44.637H48.7625C49.1353 44.6357 49.5012 44.5366 49.8236 44.3496C50.1461 44.1625 50.4138 43.8942 50.6001 43.5713C50.7863 43.2484 50.8846 42.8822 50.885 42.5095C50.8854 42.1367 50.788 41.7703 50.6025 41.447L27.2825 1.05701C27.0949 0.735378 26.8263 0.468526 26.5035 0.283062C26.1806 0.0975975 25.8148 0 25.4425 0C25.0702 0 24.7043 0.0975975 24.3815 0.283062C24.0586 0.468526 23.7901 0.735378 23.6025 1.05701V1.05701Z" fill="#EFCC00"/>
<path d="M22.4426 35.547C22.4426 34.9536 22.6185 34.3736 22.9481 33.8803C23.2778 33.3869 23.7463 33.0024 24.2945 32.7753C24.8427 32.5483 25.4459 32.4889 26.0278 32.6046C26.6098 32.7204 27.1443 33.0061 27.5639 33.4256C27.9834 33.8452 28.2692 34.3797 28.3849 34.9617C28.5007 35.5436 28.4413 36.1468 28.2142 36.695C27.9871 37.2432 27.6026 37.7117 27.1093 38.0414C26.6159 38.371 26.0359 38.547 25.4426 38.547C25.0441 38.5639 24.6464 38.498 24.2747 38.3532C23.9031 38.2085 23.5655 37.9881 23.2835 37.706C23.0014 37.424 22.7811 37.0865 22.6363 36.7148C22.4915 36.3431 22.4256 35.9455 22.4426 35.547V35.547ZM23.5326 30.887L22.7726 15.887H28.0326L27.3026 30.887H23.5326Z" fill="#353535"/>
</svg>
