<svg width="33" height="20" viewBox="0 0 33 20" fill="none" xmlns="http://www.w3.org/2000/svg">
<path d="M32.4482 9.54346C32.3987 9.44688 32.3286 9.35904 32.2415 9.28442V9.28442L22.5082 0.965317C22.3185 0.823881 22.0731 0.749286 21.8216 0.756611C21.57 0.763937 21.3311 0.852637 21.1531 1.00478C20.9752 1.15692 20.8714 1.36116 20.8628 1.57619C20.8543 1.79123 20.9415 2.00103 21.107 2.16317L29.1448 9.03362H1.80239C1.539 9.03362 1.28639 9.12307 1.10014 9.28228C0.913897 9.4415 0.809265 9.65744 0.809265 9.8826C0.809265 10.1078 0.913897 10.3237 1.10014 10.4829C1.28639 10.6421 1.539 10.7316 1.80239 10.7316H29.1422L21.107 17.6043C21.0044 17.6808 20.9213 17.7745 20.8629 17.8795C20.8044 17.9846 20.7719 18.0989 20.7673 18.2152C20.7626 18.3314 20.786 18.4473 20.8359 18.5555C20.8859 18.6638 20.9613 18.7621 21.0576 18.8444C21.1538 18.9267 21.2688 18.9911 21.3954 19.0338C21.522 19.0765 21.6576 19.0965 21.7936 19.0925C21.9296 19.0886 22.0633 19.0608 22.1862 19.0108C22.3091 18.9608 22.4187 18.8898 22.5082 18.8021L32.2415 10.4838C32.3826 10.363 32.4779 10.2087 32.5147 10.0409C32.5516 9.87314 32.5284 9.69977 32.4482 9.54346V9.54346Z" fill="#BB4343"/>
</svg>
