<svg width="42" height="54" viewBox="0 0 42 54" fill="none"
    xmlns="http://www.w3.org/2000/svg">
    <path d="M15.4641 17.0823V27.3636H26.5359V17.0823L20.9542 13.5021L15.4641 17.0823Z" fill="#D84B4B"/>
    <path d="M20.9542 0.0078125C9.42484 0.0078125 0 9.463 0 21.0295C0 30.5765 6.58824 39.0219 15.7386 41.4087L19.9477 52.3326C20.1307 52.7916 20.4967 53.067 21.0458 53.067C21.5033 53.067 21.9608 52.7916 22.1438 52.3326L26.0784 41.5005C35.3203 39.2055 42 30.7601 42 21.1213C41.9085 9.463 32.5752 0.0078125 20.9542 0.0078125ZM33.3987 21.5803L29.6471 19.1018V30.4847H12.3529V19.1018L8.60131 21.5803L6.86274 19.01L20.1307 10.381C20.6797 10.0138 21.3203 10.0138 21.7778 10.381L35.0457 19.01L33.3987 21.5803Z" fill="#D84B4B"/>
</svg>
