<svg width="64" height="64" viewBox="0 0 64 64" fill="none" xmlns="http://www.w3.org/2000/svg">
<path d="M30.53 57.54C26.1258 57.56 21.788 56.4661 17.92 54.36C13.61 51.85 10.09 48.22 9.65998 46.93C9.47998 46.39 9.25998 45.72 11.43 41.06C11.04 40.22 10.43 38.82 9.93998 37.69C9.59998 36.84 9.33998 36.08 9.15998 35.53C6.60998 34.75 6.31998 33.92 6.15998 33.53C5.99998 33.14 5.18998 26 5.99998 24.7C6.19571 24.3903 6.45134 24.1229 6.75186 23.9134C7.05238 23.7039 7.39172 23.5565 7.74998 23.48C8.27998 20.93 9.93998 15.27 14.67 11.81C19.4 8.34997 23.29 6.46997 30.24 6.46997C31.24 6.46997 32.24 6.46997 33.36 6.56997C36.0716 6.70658 38.7239 7.41407 41.1433 8.64617C43.5627 9.87828 45.6947 11.6072 47.4 13.72L48.05 14.42C49.93 16.42 51.05 20.9 51.49 23.01L51.81 23.21C51.71 20.97 51.58 18.21 51.46 15.79C50.7849 15.4575 50.2052 14.9594 49.775 14.342C49.3448 13.7247 49.0781 13.0084 49 12.26C48.9738 11.6625 49.0684 11.0659 49.278 10.5057C49.4876 9.94562 49.808 9.4335 50.22 8.99997C50.625 8.58064 51.1117 8.24891 51.6501 8.0253C52.1885 7.80169 52.7671 7.69096 53.35 7.69997C53.942 7.70899 54.5291 7.8102 55.09 7.99997C55.5655 8.14313 56.0042 8.38816 56.3755 8.718C56.7468 9.04784 57.0418 9.45459 57.24 9.90997C57.7151 11.3953 57.6297 13.0033 57 14.43C58.48 28.78 58.37 29.3 58.3 29.61C58.1753 30.1552 57.8892 30.6501 57.4788 31.0301C57.0685 31.4101 56.5531 31.6575 56 31.74C55.7772 31.792 55.5487 31.8155 55.32 31.81C54.88 31.81 54.09 31.81 53.32 31.72C53.3454 32.4167 53.183 33.1075 52.85 33.72C52.4214 34.3257 51.807 34.7751 51.1 35C51.0346 35.8745 50.8907 36.7413 50.67 37.59C50.5142 38.2677 50.2897 38.9278 50 39.56C52.38 45.64 52.35 45.95 52.3 46.41C52 48.28 44.45 54 38.41 56.19C35.8841 57.1036 33.2159 57.5608 30.53 57.54V57.54Z" fill="white"/>
<path d="M9.18999 24.9999C9.18999 24.9999 10.07 17.2899 15.65 13.2099C21.23 9.12994 25.07 7.78994 33.23 8.28994C41.39 8.78994 44.81 13.5399 46.81 15.6199C48.81 17.6999 50 24.2199 50 24.2199C50 24.2199 51.42 24.5999 51.46 25.4699C51.5 26.3399 51.54 27.4699 51.54 27.4699C52.264 27.5268 52.9921 27.5 53.71 27.3899C53.71 27.2199 53.13 14.7199 53.13 14.7199C53.13 14.7199 50.84 13.9699 50.76 12.2199C50.68 10.4699 52.14 8.83994 54.59 9.63994C57.04 10.4399 55.3 14.2199 55.3 14.2199C55.3 14.2199 56.8 28.7199 56.68 29.2999C56.56 29.8799 55.97 30.0499 55.68 30.1299C55.39 30.2099 51.68 29.9199 51.68 29.9199C51.7646 30.9248 51.6938 31.9367 51.47 32.9199C51.14 33.4599 49.47 33.7999 49.47 33.7999C49.4527 34.9416 49.2949 36.0768 49 37.1799C48.8413 37.9838 48.4991 38.7401 48 39.3899C48 39.3899 50.54 45.8499 50.5 46.2199C50.46 46.5899 44.63 52.0499 37.75 54.5999C30.87 57.1499 23 55.3899 18.75 52.8899C14.5 50.3899 11.46 47.0199 11.25 46.3899C11.04 45.7599 13.25 41.0599 13.25 41.0599C13.25 41.0599 12.13 38.7299 11.46 37.0599C11.0742 36.1054 10.7403 35.1306 10.46 34.1399C10.46 34.1399 7.99999 33.5099 7.77999 32.9299C7.55999 32.3499 7.15999 26.0499 7.44999 25.5499C7.73999 25.0499 8.81999 24.9999 9.18999 24.9999Z" fill="#1D1D1B"/>
<path d="M9.14998 26.59C9.14998 26.59 10.69 26.42 10.73 26.72C10.8557 28.6913 10.8557 30.6686 10.73 32.64C10.543 32.6954 10.3469 32.7133 10.153 32.6927C9.95908 32.6721 9.77114 32.6134 9.59998 32.52C9.43998 32.34 8.85998 26.84 9.14998 26.59Z" fill="#E7413E"/>
<path d="M48.65 25.51C48.77 25.39 49.73 25.64 49.78 25.89C49.9048 27.8313 49.9048 29.7787 49.78 31.72C49.62 31.8184 49.4407 31.881 49.2542 31.9034C49.0678 31.9258 48.8787 31.9076 48.7 31.85C48.61 31.72 48.61 25.55 48.65 25.51Z" fill="#E7413E"/>
<path d="M53.19 10.64C54.14 10.28 54.73 11.06 54.86 12.1C54.8891 12.3324 54.8549 12.5684 54.7609 12.783C54.667 12.9976 54.5168 13.1829 54.3262 13.3191C54.1356 13.4554 53.9118 13.5376 53.6783 13.5571C53.4449 13.5767 53.2105 13.5327 53 13.43C52.7304 13.2981 52.5063 13.0889 52.3562 12.829C52.2062 12.5692 52.1369 12.2705 52.1573 11.9711C52.1777 11.6718 52.2868 11.3852 52.4707 11.1482C52.6546 10.9111 52.905 10.7342 53.19 10.64V10.64Z" fill="#E6E4DA"/>
<path d="M51.94 28.26C52.07 28.26 54.73 28.26 54.73 28.01C54.73 27.76 54.23 19.59 54.48 19.39C54.73 19.19 54.77 19.47 54.9 19.72C55.2889 22.7054 55.5126 25.71 55.57 28.72C54.3772 28.9492 53.1561 28.9931 51.95 28.85C51.78 28.72 51.94 28.26 51.94 28.26Z" fill="#E6E4DA"/>
<path d="M12.19 25.1799C12.19 25.1799 10.77 25.3099 10.65 25.1799C11.167 22.1809 12.4444 19.3646 14.36 16.9999C16.0027 14.8666 18.1506 13.1758 20.61 12.0799C20.61 12.0799 20.69 13.7099 20.9 13.7899C21.959 13.9012 23.0289 13.8438 24.07 13.6199C24.24 13.3699 23.82 10.6999 23.95 10.6199C24.5405 10.4207 25.1571 10.3095 25.78 10.2899C25.7939 11.628 25.8907 12.9639 26.07 14.2899C26.8032 14.4838 27.5635 14.5548 28.32 14.4999C28.9392 14.505 29.5468 14.3314 30.07 13.9999C30.07 13.8799 29.53 9.99992 29.65 9.99992C29.7882 9.9647 29.9285 9.93798 30.07 9.91992C30.07 9.91992 30.28 13.4599 30.53 13.4199C30.78 13.3799 33.7 13.2999 33.66 12.9599C33.62 12.6199 33.2 9.70992 33.45 9.74992C36.6454 10.0765 39.6744 11.3353 42.16 13.3699C46 16.6399 48 23.5899 47.9 23.6799C47.6699 23.781 47.4326 23.8645 47.19 23.9299C47.19 23.9299 41.73 18.3099 36.52 17.4699C31.31 16.6299 27.06 16.0999 21.6 18.5999C18.1225 20.2603 14.943 22.4835 12.19 25.1799V25.1799Z" fill="#CBE7F5"/>
<path d="M21.61 11.6799C21.78 11.5999 22.94 11.1799 22.94 11.1799C22.94 11.1799 23.27 12.6799 23.07 12.7599C22.6697 12.8215 22.2649 12.8483 21.86 12.8399L21.61 11.6799Z" fill="#E7413E"/>
<path d="M26.73 10.09C27.3927 10.001 28.0623 9.97421 28.73 10.01C28.8342 11.1736 28.8776 12.3418 28.86 13.51C28.2996 13.6377 27.7233 13.6815 27.15 13.64C26.8889 12.4741 26.7482 11.2846 26.73 10.09V10.09Z" fill="#E7413E"/>
<path d="M31 9.89001C31.17 9.89001 32.46 9.89001 32.46 9.89001C32.5667 10.635 32.6102 11.3877 32.59 12.14C32.47 12.14 31.34 12.27 31.34 12.27L31 9.89001Z" fill="#E7413E"/>
<path d="M12.44 27.05C15.0851 24.4941 18.0739 22.3198 21.32 20.59C25.49 18.59 30.9 18.51 34.65 19.13C38.4 19.75 41.73 22.21 44.07 23.84C46.41 25.47 46.61 26.05 46.61 26.05C46.5935 28.2203 46.6903 30.3899 46.9 32.55C47.0998 32.9182 47.3525 33.2551 47.65 33.55C47.3272 35.1238 46.771 36.6406 46 38.05C45.0654 39.9529 43.7638 41.6521 42.17 43.05C41.1294 43.7795 40.0364 44.4312 38.9 45C38.9 45 36.07 42.25 35.9 42.21C35.73 42.17 35.07 42.67 35.19 42.92C35.31 43.17 38.32 45.34 38.07 45.5C35.3414 46.6146 32.436 47.2343 29.49 47.33C25.1171 47.2504 20.913 45.6283 17.62 42.75C15.3238 40.3075 13.5629 37.4124 12.45 34.25C12.36 34 12.4 27.14 12.44 27.05Z" fill="#1F4863"/>
<path d="M22.57 23.6799C23.08 23.6799 23.57 24.5999 23.11 25.3499C22.65 26.0999 20.36 28.8899 20.57 31.5199C20.625 33.305 21.3044 35.0143 22.49 36.3499C23.24 37.1799 23.66 37.0999 23.66 37.4799C23.66 37.8599 23.66 37.8999 23.41 37.9799C21.4616 38.3829 19.4329 38.0251 17.74 36.9799C15.36 35.3599 15.32 31.7299 15.45 30.4399C15.58 29.1499 16.23 23.8899 22.57 23.6799Z" fill="#1D1D1B"/>
<path d="M21.15 24.72C21.61 24.65 21.9 25.01 21.69 25.18C21.48 25.35 18.98 28.18 19.11 31.18C19.24 34.18 20 35.51 20.48 36C20.96 36.49 21.19 36.71 21.06 36.83C20.2969 36.7943 19.5538 36.5747 18.8939 36.1899C18.234 35.8051 17.6769 35.2665 17.27 34.62C16.02 32.62 16.85 29.16 17.52 27.83C18.19 26.5 19.15 25 21.15 24.72Z" fill="#E6E4DA"/>
<path d="M40.53 22.6799C41.2713 22.9589 41.9217 23.4363 42.41 24.0599C42.41 24.3099 42.33 24.5199 42.2 24.4799C41.5598 24.1584 40.9476 23.7837 40.37 23.3599C40.3324 23.3058 40.3067 23.2444 40.2944 23.1797C40.2821 23.115 40.2835 23.0484 40.2986 22.9843C40.3137 22.9202 40.3421 22.86 40.3819 22.8075C40.4218 22.7551 40.4722 22.7116 40.53 22.6799V22.6799Z" fill="#1D1D1B"/>
<path d="M40.86 26.76C42.1731 27.3072 43.4181 28.0052 44.57 28.84C44.57 29.09 44.57 29.34 44.45 29.34C44.33 29.34 41 27.68 40.82 27.59C40.64 27.5 40.65 26.8 40.86 26.76Z" fill="#1D1D1B"/>
<path d="M41.07 29.6799C42.4256 30.3856 43.7084 31.223 44.9 32.1799C44.9 32.4299 44.98 32.8099 44.82 32.7599C44.66 32.7099 41.03 30.6399 40.82 30.4299C40.61 30.2199 40.94 29.6799 41.07 29.6799Z" fill="#1D1D1B"/>
<path d="M40.9 32.76C42.2622 33.5052 43.5454 34.3863 44.73 35.39C44.73 35.6 44.48 35.93 44.48 35.93C43.1502 35.2068 41.8585 34.4158 40.61 33.56C40.57 33.34 40.9 32.76 40.9 32.76Z" fill="#1D1D1B"/>
<path d="M39.86 35.76C39.86 35.76 44.44 38.76 44.36 38.97C44.28 39.18 44.24 39.51 44.07 39.43C43.9 39.35 39.4 36.64 39.4 36.43C39.4 36.22 39.86 35.76 39.86 35.76Z" fill="#1D1D1B"/>
<path d="M38.9 38.26C40.3247 39.2258 41.663 40.3132 42.9 41.51C42.7646 41.657 42.6099 41.7848 42.44 41.89C42.44 41.89 38.44 38.97 38.36 38.77C38.28 38.57 38.65 38.3 38.9 38.26Z" fill="#1D1D1B"/>
<path d="M37.36 40.2999C38.6089 41.0878 39.7573 42.0247 40.78 43.0899C40.6446 43.2369 40.4898 43.3647 40.32 43.4699C39.1236 42.6873 37.9811 41.8254 36.9 40.8899C36.9712 40.6412 37.1361 40.4297 37.36 40.2999Z" fill="#1D1D1B"/>
<path d="M28.53 23.7199C28.8654 23.6944 29.2028 23.7213 29.53 23.7999C29.53 23.7999 29.61 22.3799 29.91 22.2999C30.21 22.2199 30.49 22.2999 30.49 22.4299C30.49 22.5599 30.57 23.6399 30.57 23.6399C30.57 23.6399 31.74 23.0199 31.86 23.1799C31.98 23.3399 31.78 23.9299 31.78 23.9299C31.78 23.9299 32.2 24.1799 32.2 24.3499C32.1762 24.5011 32.118 24.6448 32.03 24.7699C32.03 24.7699 30.61 24.5199 30.61 24.7699C30.7267 25.2674 30.8805 25.7554 31.07 26.2299L30.45 26.4799C30.45 26.4799 29.95 25.6099 29.87 25.7699C29.6743 26.0475 29.4177 26.2766 29.12 26.4399C29 26.4399 28.66 25.9399 28.66 25.9399C28.66 25.9399 29.49 24.8599 29.37 24.7699C29.25 24.6799 28.37 24.4799 28.37 24.3099C28.3528 24.1006 28.4094 23.8919 28.53 23.7199Z" fill="#E6E4DA"/>
<path d="M34.73 36.49C34.9255 36.4594 35.1245 36.4594 35.32 36.49C35.32 36.49 35.32 35.6499 35.54 35.5999C35.76 35.5499 35.88 35.5999 35.88 35.6699C35.88 35.7399 35.88 36.38 35.88 36.38C35.88 36.38 36.57 36.01 36.64 36.11C36.71 36.21 36.64 36.5499 36.64 36.5499C36.64 36.5499 36.89 36.6999 36.89 36.7999C36.8757 36.8897 36.8415 36.9751 36.79 37.0499C36.79 37.0499 36 36.9999 36 37.0999C36.0685 37.3929 36.1588 37.6804 36.27 37.9599L35.9 38.11C35.9 38.11 35.6 37.5899 35.56 37.6899C35.4445 37.8514 35.2941 37.9847 35.12 38.08C35.05 38.08 34.85 37.7799 34.85 37.7799C34.85 37.7799 35.34 37.14 35.27 37.09C35.2 37.04 34.65 36.92 34.65 36.82C34.6397 36.7042 34.6678 36.5882 34.73 36.49Z" fill="#E6E4DA"/>
<path d="M23.18 40.0899C23.35 39.9699 23.56 39.7599 23.76 39.8799C23.96 39.9999 24.14 40.9599 24.14 40.9599C24.14 40.9599 25.02 40.9599 25.14 41.1699C25.1893 41.4175 25.1893 41.6724 25.14 41.9199H24.47L24.6 42.8399H24.18L23.6 42.0499C23.6 42.0499 23.27 42.6299 23.14 42.5899C22.8944 42.4508 22.6573 42.2972 22.43 42.1299L23.1 41.4599C23.1 41.4599 22.27 41.2899 22.27 41.0399C22.27 40.7899 22.27 40.4999 22.44 40.5399C22.61 40.5799 23.07 40.7899 23.11 40.6699C23.15 40.5499 23.18 40.0899 23.18 40.0899Z" fill="#E6E4DA"/>
<path d="M27.92 32.5899C28.09 32.5099 28.8 32.1699 28.8 32.2999C28.8 32.4299 28.72 33.0899 29.01 33.0899C29.3 33.0899 30.14 33.0099 30.14 33.1699C30.14 33.3299 30.43 33.6699 30.14 33.7099C29.85 33.7499 29.14 33.8799 29.14 33.8799L29.27 34.8799H28.77C28.52 34.8799 28.27 33.9599 28.27 33.9599C28.27 33.9599 27.56 33.7899 27.56 33.6699C27.56 33.5499 27.56 33.2499 27.56 33.2499H27.94L27.92 32.5899Z" fill="#E6E4DA"/>
<path d="M35.69 28.05C35.86 27.97 36.57 27.63 36.57 27.76C36.57 27.89 36.49 28.55 36.78 28.55C37.07 28.55 37.91 28.47 37.91 28.63C37.91 28.79 38.2 29.13 37.91 29.17C37.62 29.21 36.91 29.34 36.91 29.34L37.04 30.34H36.54C36.29 30.34 36.04 29.42 36.04 29.42C36.04 29.42 35.33 29.25 35.33 29.13C35.33 29.01 35.33 28.71 35.33 28.71H35.71L35.69 28.05Z" fill="#E6E4DA"/>
<path d="M29.4 39.1999C29.57 39.1199 30.07 39.0799 30.15 39.2799C30.23 39.4799 30.82 39.7799 30.82 39.7799L31.4 40.9999L31.03 41.3799C31.03 41.3799 30.36 41.8399 30.28 41.6699C30.1708 41.4932 30.047 41.326 29.91 41.1699L29.54 41.7099L28.75 41.3799C28.75 41.3799 28.5 40.7099 28.75 40.5099C29 40.3099 29.29 40.4299 29.25 40.1799C29.2169 39.8459 29.2685 39.5088 29.4 39.1999V39.1999Z" fill="#E6E4DA"/>
<path d="M14.48 42.72C14.7 42.87 15.81 44.14 16.48 44.72C16.7944 45.0064 17.1286 45.2704 17.48 45.51C17.48 45.51 15.94 48.05 15.69 48.01C14.7434 47.4485 13.8871 46.7472 13.15 45.93C13.4273 44.7985 13.8758 43.716 14.48 42.72V42.72Z" fill="#CBE7F5"/>
<path d="M18.07 45.64C18.19 45.55 18.57 45.77 18.49 45.89C18.41 46.01 16.95 49.06 16.82 49.06C16.69 49.06 16.2 48.98 16.32 48.81C16.44 48.64 17.9 45.76 18.07 45.64Z" fill="#E7413E"/>
<path d="M19.07 46.51L19.49 46.76C19.0617 47.8945 18.5468 48.9944 17.95 50.05C17.78 49.97 17.49 49.88 17.49 49.76C17.49 49.64 19.07 46.51 19.07 46.51Z" fill="#E7413E"/>
<path d="M20.15 47.05C22.5941 48.3453 25.3048 49.0572 28.07 49.13C32.9 49.34 34.61 49.26 38.86 47.13C41.28 46.0338 43.4821 44.5093 45.36 42.63C45.8105 42.1729 46.2989 41.7547 46.82 41.38C46.82 41.38 48.49 45.71 48.4 45.88C48.2718 46.0453 48.1162 46.1873 47.94 46.3C47.4201 45.2816 46.8216 44.3053 46.15 43.38C45.94 43.38 45.48 44.09 45.48 44.09C45.48 44.09 47.15 46.55 46.98 46.8C46.625 47.1008 46.2315 47.3531 45.81 47.55C45.413 46.7009 44.9376 45.8907 44.39 45.13C44.14 45.05 43.47 45.55 43.56 45.76C43.65 45.97 45.1 48.22 45.1 48.22C45.1 48.22 44.27 48.97 44.1 48.89C43.93 48.81 42.89 46.72 42.73 46.72C42.57 46.72 42.06 47.3 42.06 47.3C42.06 47.3 43.6 49.3 43.44 49.47L42.69 50.05L41.27 47.93C41.27 47.93 40.65 48.18 40.65 48.35C40.65 48.52 42.11 50.73 42.03 50.85C41.95 50.97 39.57 52.85 34.28 53.48C28.99 54.11 25.66 53.61 22.74 52.65C19.82 51.69 18.74 50.78 18.66 50.65C18.9885 49.3871 19.4899 48.1757 20.15 47.05V47.05Z" fill="#CBE7F5"/>
</svg>
