<svg width="26" height="24" viewBox="0 0 26 24" fill="none" xmlns="http://www.w3.org/2000/svg">
<path d="M3.25003 21.75C2.91406 21.75 3.0469 21.8726 3.0469 21.5625V4.125C3.0469 3.81488 3.32031 3.5625 3.65628 3.5625H18.2813C18.6172 3.5625 18.8907 3.81488 18.8907 4.125V21.5625C18.8907 21.8726 18.6172 21.75 18.2813 21.75H3.25003Z" fill="#18FFFF"/>
<path d="M8.53125 20.625L4.46875 16.875V4.875H17.4688V20.625H8.53125Z" fill="white"/>
<path d="M13 21H8.53125V16.875L13 21Z" fill="#ECEFF1"/>
<path d="M4.55286 17.1401H8.32814V20.625L4.55286 17.1401Z" fill="#84FFFF"/>
<path d="M15.4476 4.74675C15.3639 4.51537 14.9796 4.3125 14.625 4.3125H12.7968V3.5625H12.4467L12.3861 3.49725C12.2833 3.38738 12.1952 3.31125 12.1221 3.24825C11.9413 3.09262 11.7983 2.96925 11.7812 2.625C11.7812 2.21137 11.4168 1.875 10.9687 1.875C10.5206 1.875 10.1562 2.21137 10.1542 2.59875L10.1578 2.62163L10.1566 2.64113C10.1392 2.96925 9.99616 3.09225 9.81578 3.24825C9.74225 3.31125 9.6545 3.38738 9.55172 3.49725L9.49078 3.5625H9.1406V4.3125H7.31247C6.95781 4.3125 6.5735 4.51537 6.48981 4.74675C6.42441 4.92788 6.36469 5.23275 6.32935 5.4375H15.5963L15.4476 4.74675ZM10.9687 3.375C10.5198 3.375 10.1562 3.039 10.1562 2.625C10.1562 2.211 10.5198 1.875 10.9687 1.875C11.4176 1.875 11.7812 2.211 11.7812 2.625C11.7812 3.039 11.4176 3.375 10.9687 3.375Z" fill="#ECEFF1"/>
<path d="M8.9375 3.375V4.125H7.3125C6.95947 4.125 6.60522 4.28212 6.41428 4.5H4.0625V16.875L8.53125 21H17.875V4.5H15.5232C15.3323 4.28212 14.978 4.125 14.625 4.125H13V3.375H12.5397C12.1924 3.00262 12.0035 2.99925 11.9836 2.63213C11.9836 2.62988 11.9844 2.62725 11.9844 2.625C11.9844 2.10825 11.529 1.6875 10.9688 1.6875C10.4666 1.6875 10.0514 2.0265 9.97019 2.46863C9.96125 2.52 9.95312 2.57138 9.95312 2.625C9.95312 2.62725 9.95394 2.62988 9.95394 2.63213C9.93403 2.99925 9.74512 3.00262 9.39778 3.375H8.9375ZM8.125 20.0947L5.04319 17.25H8.125V20.0947ZM15.6812 4.875H17.4688V20.625H8.53125V16.875H4.46875V4.875H6.24081C6.15591 5.199 6.09375 5.625 6.09375 5.625H15.8438L15.6812 4.875ZM10.3602 2.61938C10.3602 2.59763 10.3642 2.57663 10.3671 2.55563C10.3699 2.538 10.3707 2.52038 10.3752 2.50313H10.3748C10.4358 2.2515 10.6783 2.0625 10.9688 2.0625C11.299 2.0625 11.5668 2.30587 11.5765 2.6085L11.5757 2.6115L11.5769 2.6355C11.5704 2.94075 11.3007 3.1875 10.9688 3.1875C10.6356 3.1875 10.3643 2.93888 10.3602 2.63213V2.61938ZM9.34375 3.75H9.58384L9.70572 3.61987C9.79997 3.51862 9.88244 3.44775 9.95434 3.3855C10.0254 3.32437 10.0969 3.2625 10.1603 3.18637C10.346 3.41325 10.6377 3.5625 10.9688 3.5625C11.2994 3.5625 11.5915 3.41363 11.7768 3.18675C11.8398 3.26213 11.9121 3.324 11.9832 3.3855C12.0555 3.44813 12.1375 3.51862 12.2318 3.61987L12.3537 3.75H12.5938V4.5H14.625C14.9244 4.5 15.1889 4.6695 15.2486 4.791L15.3481 5.25H6.57028C6.60278 5.08612 6.64259 4.91663 6.682 4.806C6.72628 4.6845 7.00009 4.5 7.3125 4.5H9.34375V3.75Z" fill="#37474F"/>
<path d="M18.2812 3.375H13.4062V3.75H18.2812C18.5055 3.75 18.6875 3.91838 18.6875 4.125V21.375C18.6875 21.5816 18.5055 21.75 18.2812 21.75H3.65625C3.432 21.75 3.25 21.5816 3.25 21.375V4.125C3.25 3.91838 3.432 3.75 3.65625 3.75H8.53125V3.375H3.65625C3.20937 3.375 2.84375 3.7125 2.84375 4.125V21.375C2.84375 21.7875 3.20937 22.125 3.65625 22.125H18.2812C18.7281 22.125 19.0938 21.7875 19.0938 21.375V4.125C19.0938 3.7125 18.7281 3.375 18.2812 3.375Z" fill="#37474F"/>
<path d="M22.3856 3.51262L19.9062 3.375V18.7238V18.75H22.3438V4.5H22.75V10.875L23.1562 11.25V4.5C23.1562 4.086 22.8109 3.64387 22.3856 3.51262Z" fill="#37474F"/>
<path d="M22.293 3.83325L19.957 3.35175V18.3731V18.3986H22.293V3.83325Z" fill="white"/>
<path d="M20.7188 3.75V18.75H22.1662L22.2024 4.056L20.7188 3.75Z" fill="#FF5252"/>
<path d="M22.3438 10.5H19.9062V10.875H22.3438V10.5Z" fill="#37474F"/>
<path d="M20.3125 3.468L21.9375 3.80325V4.5V11.625V18.375H20.3125V3.468ZM19.9062 3V18.7238V18.75H22.3438V11.625V4.5V3.5025L19.9062 3Z" fill="#37474F"/>
<path d="M20.1094 18.7196V18.5625H22.1406V18.7196L21.125 21.5321L20.1094 18.7196Z" fill="#F0F2F4"/>
<path d="M21.9152 18.75L21.125 20.9393L20.3348 18.75H21.9152ZM22.3438 18.375H19.9062V18.75L21.125 22.125L22.3438 18.75V18.375Z" fill="#37474F"/>
<path d="M14.0156 9.5625C14.9131 9.5625 15.6406 8.89093 15.6406 8.0625C15.6406 7.23407 14.9131 6.5625 14.0156 6.5625C13.1182 6.5625 12.3906 7.23407 12.3906 8.0625C12.3906 8.89093 13.1182 9.5625 14.0156 9.5625Z" fill="#FF8A80"/>
<path d="M14.0156 9.75C13.0077 9.75 12.1875 8.99288 12.1875 8.0625C12.1875 7.13213 13.0077 6.375 14.0156 6.375C15.0235 6.375 15.8438 7.13213 15.8438 8.0625C15.8438 8.99288 15.0235 9.75 14.0156 9.75ZM14.0156 6.75C13.2316 6.75 12.5938 7.33875 12.5938 8.0625C12.5938 8.78625 13.2316 9.375 14.0156 9.375C14.7997 9.375 15.4375 8.78625 15.4375 8.0625C15.4375 7.33875 14.7997 6.75 14.0156 6.75Z" fill="#37474F"/>
<path d="M14.2188 7.125H13.8125V9H14.2188V7.125Z" fill="#37474F"/>
<path d="M15.0312 7.875H13V8.25H15.0312V7.875Z" fill="#37474F"/>
<path d="M16.25 11.625H9.34375V12H16.25V11.625Z" fill="#37474F"/>
<path d="M16.25 10.5H9.34375V10.875H16.25V10.5Z" fill="#37474F"/>
<path d="M8.125 14.4289V16.125H5.6875V13.875H7.19428L7.42666 13.5H5.28125V16.5H8.53125V13.7737L8.125 14.4289Z" fill="#37474F"/>
<path d="M6.91965 15.7316L5.92474 14.3539L6.26274 14.1461L6.89284 15.0184L8.35493 12.657L8.70756 12.843L6.91965 15.7316Z" fill="#FF5722"/>
<path d="M8.125 9.92887V11.625H5.6875V9.375H7.19428L7.42666 9H5.28125V12H8.53125V9.27375L8.125 9.92887Z" fill="#37474F"/>
<path d="M6.91965 11.2316L5.92474 9.85389L6.26274 9.64614L6.89284 10.5184L8.35493 8.15701L8.70756 8.34301L6.91965 11.2316Z" fill="#FF5722"/>
<path d="M16.25 16.125H9.34375V16.5H16.25V16.125Z" fill="#37474F"/>
<path d="M16.25 15H9.34375V15.375H16.25V15Z" fill="#37474F"/>
</svg>
